<?xml version="1.0" standalone="no"?>
<!DOCTYPE svg PUBLIC "-//W3C//DTD SVG 20010904//EN"
 "http://www.w3.org/TR/2001/REC-SVG-20010904/DTD/svg10.dtd">
<svg version="1.0" xmlns="http://www.w3.org/2000/svg"
 width="1025.000000pt" height="790.000000pt" viewBox="0 0 1025.000000 790.000000"
 preserveAspectRatio="xMidYMid meet">

<g transform="translate(0.000000,790.000000) scale(0.100000,-0.100000)"
fill="#000000" stroke="none">
<path d="M5 3950 c0 -2175 1 -3065 2 -1977 2 1087 2 2867 0 3955 -1 1087 -2
197 -2 -1978z"/>
<path d="M280 3935 l0 -3745 4870 0 4870 0 0 3745 0 3745 -4870 0 -4870 0 0
-3745z m9588 0 l2 -3595 -4720 0 -4720 0 0 3593 c0 1977 2 3596 4 3598 2 2
2125 3 4718 2 l4713 -3 3 -3595z"/>
<path d="M5167 6783 c-21 -3 -27 -9 -23 -21 11 -32 86 -397 86 -414 0 -14 9
-18 43 -18 l44 0 17 103 c9 56 20 117 23 135 8 51 18 28 37 -93 24 -153 20
-145 70 -145 l43 0 10 49 c10 49 10 50 -16 53 -26 3 -27 6 -56 178 -26 150
-33 175 -47 174 -55 -2 -53 2 -77 -126 -13 -68 -26 -127 -30 -133 -3 -5 -17
51 -31 125 -27 146 -25 144 -93 133z"/>
<path d="M2220 5718 c-67 -45 -78 -166 -21 -230 51 -57 170 -47 200 18 15 33
14 34 -10 34 -12 0 -30 -11 -41 -25 -27 -34 -80 -34 -113 0 -20 19 -25 34 -25
75 0 44 5 56 29 81 16 16 40 29 53 29 29 0 68 -26 68 -46 0 -10 8 -14 22 -12
32 5 32 23 0 58 -39 45 -111 53 -162 18z"/>
<path d="M2469 5732 c-3 -28 -4 -260 -1 -269 3 -9 31 -13 93 -13 82 0 89 2 89
20 0 17 -8 19 -67 22 l-68 3 0 39 0 40 63 -3 c56 -2 62 -1 62 18 0 18 -7 20
-62 23 l-63 3 0 40 0 40 68 3 c51 2 67 6 67 17 0 10 -10 15 -27 16 -16 0 -56
2 -90 4 -35 2 -63 1 -64 -3z"/>
<path d="M2710 5594 l0 -144 26 0 c20 0 25 5 24 23 -1 12 -2 37 -1 55 1 28 4
32 29 32 23 0 32 -9 56 -55 22 -43 34 -55 52 -55 13 0 24 2 24 3 0 2 -13 28
-29 57 l-29 53 24 19 c50 40 22 145 -40 149 -12 1 -47 3 -78 4 l-58 3 0 -144z
m138 90 c24 -17 29 -53 10 -72 -7 -7 -31 -12 -54 -12 -46 0 -55 12 -46 68 4
28 8 32 36 32 17 0 42 -7 54 -16z"/>
<path d="M2960 5718 c0 -13 10 -18 43 -20 l42 -3 3 -122 3 -123 24 0 25 0 0
125 0 125 39 0 c42 0 60 13 39 27 -7 4 -59 8 -115 8 -90 0 -103 -2 -103 -17z"/>
<path d="M3240 5594 l0 -144 25 0 26 0 -3 143 c-3 139 -3 142 -25 143 -23 1
-23 0 -23 -142z"/>
<path d="M3340 5593 l0 -143 25 0 c23 0 24 4 27 62 l3 61 55 1 c44 1 55 5 58
19 3 15 -5 17 -57 17 l-61 0 0 45 0 45 65 0 c55 0 65 3 65 18 0 15 -11 17 -90
18 l-90 0 0 -143z"/>
<path d="M3593 5733 c-10 -4 -13 -41 -13 -144 l0 -139 25 0 25 0 0 139 c0 140
-4 155 -37 144z"/>
<path d="M3753 5726 c-77 -35 -95 -183 -29 -245 53 -50 167 -35 195 25 15 33
14 34 -10 34 -12 0 -30 -11 -41 -25 -27 -34 -80 -34 -113 0 -20 19 -25 34 -25
75 0 44 5 56 29 81 16 16 40 29 53 29 29 0 68 -26 68 -46 0 -8 10 -14 25 -14
33 0 32 22 -3 61 -33 37 -98 48 -149 25z"/>
<path d="M4025 5605 c-26 -71 -48 -136 -50 -142 -3 -8 5 -13 20 -13 18 0 27 8
36 35 13 34 14 35 70 35 57 0 58 0 69 -35 9 -27 17 -35 36 -35 13 0 24 2 24 5
0 12 -93 261 -101 269 -5 5 -20 10 -33 11 -23 1 -28 -9 -71 -130z m99 18 c22
-63 22 -63 -24 -63 -22 0 -40 1 -40 3 0 18 33 107 39 107 5 0 16 -21 25 -47z"/>
<path d="M4234 5731 c-16 -16 1 -30 39 -33 l42 -3 3 -122 c2 -114 4 -123 22
-123 18 0 20 9 22 123 l3 122 43 3 c33 3 42 7 42 22 0 17 -8 18 -106 17 -58
-1 -107 -4 -110 -6z"/>
<path d="M4510 5593 l0 -143 90 0 c83 0 90 1 90 20 0 18 -7 20 -65 20 l-65 0
0 40 0 40 45 1 c68 2 69 3 73 22 3 15 -5 17 -56 17 -65 0 -70 4 -64 56 l4 34
64 0 c54 0 64 3 64 18 0 15 -11 17 -90 18 l-90 0 0 -143z"/>
<path d="M4923 5725 c-48 -21 -73 -68 -73 -139 0 -55 3 -61 39 -97 33 -33 45
-39 82 -39 48 0 101 27 118 59 40 73 13 184 -52 214 -42 20 -71 21 -114 2z
m108 -54 c24 -25 29 -38 29 -79 0 -68 -27 -102 -80 -102 -54 0 -80 34 -80 107
0 44 5 58 25 78 33 33 70 32 106 -4z"/>
<path d="M5160 5593 l0 -143 25 0 c24 0 25 3 25 60 l0 59 57 3 c46 2 59 7 61
21 3 15 -5 17 -57 17 l-61 0 0 45 0 45 65 0 c55 0 65 3 65 18 0 15 -11 17 -90
17 l-90 0 0 -142z"/>
<path d="M5565 5726 c-58 -26 -87 -105 -66 -182 16 -60 50 -86 116 -92 52 -4
56 -3 90 31 19 19 35 40 35 46 0 21 -42 11 -62 -14 -15 -19 -29 -25 -58 -25
-53 0 -80 34 -80 102 0 41 5 54 29 79 16 16 40 29 53 29 29 0 68 -26 68 -46 0
-8 10 -14 25 -14 33 0 32 22 -3 61 -33 37 -98 48 -147 25z"/>
<path d="M5860 5722 c-93 -46 -93 -211 0 -260 34 -18 115 -10 141 14 70 62 62
198 -13 244 -41 25 -82 25 -128 2z m123 -53 c25 -31 23 -118 -4 -153 -16 -20
-29 -26 -59 -26 -54 0 -80 34 -80 104 1 53 11 74 45 94 27 16 76 7 98 -19z"/>
<path d="M6113 5733 c-10 -4 -13 -41 -13 -144 l0 -139 25 0 25 0 0 102 c0 56
3 98 7 95 3 -4 23 -49 42 -99 49 -125 62 -125 110 -1 20 50 39 95 44 99 4 4 7
-38 7 -94 l0 -102 25 0 26 0 -3 142 c-3 133 -4 141 -23 144 -33 5 -42 -7 -80
-101 -20 -48 -40 -95 -44 -103 -5 -9 -22 21 -53 95 -45 108 -55 119 -95 106z"/>
<path d="M6475 5732 c-3 -3 -5 -68 -5 -144 0 -130 1 -138 19 -138 17 0 20 8
23 48 l3 47 59 5 c71 7 96 31 96 94 0 65 -29 86 -119 90 -39 1 -73 0 -76 -2z
m126 -42 c14 -8 19 -21 19 -49 0 -44 -10 -51 -71 -51 l-39 0 0 48 c0 27 3 52
7 55 10 11 62 8 84 -3z"/>
<path d="M6730 5594 l0 -144 85 0 c78 0 85 2 85 20 0 18 -7 20 -60 20 l-60 0
0 119 c0 119 0 119 -25 123 l-25 5 0 -143z"/>
<path d="M6950 5593 l0 -143 96 0 c86 0 95 2 92 18 -3 14 -16 18 -71 20 l-67
3 0 39 0 39 62 3 c50 2 63 6 66 21 3 15 -5 17 -62 17 l-66 0 0 45 0 45 71 0
c59 0 70 3 67 16 -2 12 -21 16 -95 17 l-93 2 0 -142z"/>
<path d="M7195 5731 c-3 -2 -5 -10 -5 -18 0 -9 14 -13 45 -13 l45 0 0 -125 0
-125 25 0 25 0 0 125 0 125 45 0 c33 0 45 4 45 15 0 8 -3 15 -7 16 -31 4 -214
4 -218 0z"/>
<path d="M7478 5733 c-16 -4 -18 -20 -18 -144 l0 -139 25 0 25 0 0 145 c0 80
-3 144 -7 144 -5 -1 -16 -3 -25 -6z"/>
<path d="M7645 5726 c-82 -36 -99 -181 -29 -247 21 -20 36 -24 85 -24 52 0 62
3 90 32 54 53 51 169 -6 223 -29 28 -98 36 -140 16z m102 -41 c30 -21 48 -87
34 -128 -17 -49 -40 -67 -82 -67 -52 0 -79 35 -79 102 0 41 5 54 29 79 33 32
65 37 98 14z"/>
<path d="M7893 5733 c-10 -4 -13 -41 -13 -144 l0 -139 25 0 c25 0 25 0 25 95
0 52 4 95 9 95 4 0 25 -26 46 -57 62 -95 96 -133 116 -133 18 0 19 9 19 139 0
130 -1 139 -20 144 -11 3 -20 2 -21 -1 0 -4 -1 -49 -2 -99 -1 -51 -5 -93 -8
-93 -3 0 -35 42 -70 94 -62 91 -80 108 -106 99z"/>
<path d="M3470 4758 c0 -3 12 -8 28 -10 26 -3 27 -5 30 -75 2 -40 7 -73 12
-73 5 0 10 33 12 73 3 66 5 72 26 75 47 7 19 18 -43 18 -36 0 -65 -4 -65 -8z"/>
<path d="M3877 4763 c-4 -3 -7 -42 -7 -85 0 -61 3 -78 15 -78 10 0 15 15 17
58 l3 57 39 -58 c22 -32 44 -56 50 -54 14 5 15 156 1 160 -5 1 -11 -22 -13
-50 -2 -29 -6 -53 -10 -53 -4 0 -20 20 -35 44 -31 50 -51 69 -60 59z"/>
<path d="M4049 4768 c-1 -2 -3 -40 -4 -85 -2 -64 1 -83 11 -83 9 0 14 11 14
29 0 17 5 33 12 37 10 7 20 -3 51 -50 7 -10 19 -17 25 -15 8 3 2 19 -19 47
-31 43 -31 43 -12 65 59 68 53 76 -12 16 l-45 -42 0 36 c0 20 -4 39 -10 42 -5
3 -11 5 -11 3z"/>
<path d="M4200 4756 c0 -37 41 -157 53 -153 7 2 19 27 27 55 8 29 18 52 21 52
4 0 13 -24 21 -52 9 -31 20 -53 28 -53 16 0 63 152 49 160 -10 7 -14 -1 -29
-62 -6 -29 -15 -53 -19 -53 -4 0 -13 25 -20 56 -17 72 -40 71 -60 -4 -8 -28
-17 -52 -21 -52 -4 0 -11 20 -14 44 -4 24 -13 52 -21 62 -14 19 -14 19 -15 0z"/>
<path d="M4446 4763 c-3 -3 -6 -42 -6 -85 0 -63 3 -78 15 -78 10 0 15 11 15
35 0 34 1 35 40 35 39 0 40 -1 40 -36 0 -24 4 -34 13 -31 8 2 12 28 12 80 -1
77 -17 108 -23 42 -3 -34 -5 -35 -43 -35 -38 0 -39 1 -39 34 0 34 -11 52 -24
39z"/>
<path d="M4628 4759 c-10 -5 -18 -17 -18 -26 0 -14 2 -14 20 2 20 18 50 15 50
-6 0 -6 -9 -22 -20 -36 -30 -38 -14 -47 20 -11 35 37 36 42 10 68 -22 22 -37
24 -62 9z"/>
<path d="M4730 4758 c0 -4 12 -8 28 -10 26 -3 27 -5 30 -75 2 -40 7 -73 12
-73 5 0 10 32 12 72 3 68 5 73 28 79 17 4 3 7 -43 10 -37 2 -67 1 -67 -3z"/>
<path d="M5000 4763 c-35 -13 -50 -37 -50 -80 0 -69 53 -104 111 -73 20 11 27
40 9 40 -5 0 -10 -4 -10 -10 0 -5 -11 -12 -25 -16 -55 -14 -88 63 -45 106 25
25 35 25 61 -1 11 -11 25 -19 32 -16 14 4 -37 57 -55 56 -7 0 -20 -3 -28 -6z"/>
<path d="M5140 4762 c-6 -2 -10 -39 -10 -83 l0 -79 50 0 c28 0 50 5 50 10 0 6
-18 10 -40 10 -36 0 -40 3 -40 25 0 22 4 25 35 25 19 0 35 5 35 10 0 6 -16 10
-36 10 -33 0 -35 2 -32 28 3 23 9 28 43 33 22 3 38 7 35 8 -9 4 -80 6 -90 3z"/>
<path d="M5298 4762 c-28 -3 -28 -4 -28 -83 0 -46 4 -79 10 -79 6 0 10 14 10
30 0 23 4 30 20 30 12 0 26 -12 35 -30 9 -16 22 -30 30 -30 13 0 13 4 -2 26
-13 21 -14 30 -5 45 34 54 -1 100 -70 91z m48 -26 c15 -12 17 -18 8 -33 -15
-24 -58 -24 -62 0 -9 44 18 59 54 33z"/>
<path d="M5417 4758 c-6 -3 3 -8 19 -10 29 -3 29 -4 32 -75 2 -40 7 -73 12
-73 5 0 10 32 12 72 3 67 5 73 28 79 14 4 21 8 15 9 -25 6 -108 4 -118 -2z"/>
<path d="M5878 4762 l-38 -3 0 -80 0 -79 50 0 c28 0 50 5 50 10 0 6 -18 10
-40 10 -36 0 -40 3 -40 25 0 22 4 25 35 25 19 0 35 5 35 10 0 6 -16 10 -35 10
-32 0 -35 2 -35 29 0 28 3 30 43 33 23 2 35 5 27 8 -8 3 -32 4 -52 2z"/>
<path d="M6003 4755 c-41 -29 -28 -63 32 -82 20 -6 30 -16 30 -29 0 -23 -39
-31 -61 -13 -19 16 -30 4 -14 -16 26 -32 110 -10 110 29 0 18 -30 43 -62 51
-19 5 -28 14 -28 26 0 25 23 34 50 19 23 -12 40 -6 24 9 -19 19 -59 22 -81 6z"/>
<path d="M6199 4759 c-24 -7 -23 -7 4 -8 27 -1 27 -1 27 -76 0 -59 3 -75 15
-75 11 0 15 17 17 72 3 67 5 73 28 79 21 6 22 7 5 9 -58 5 -74 5 -96 -1z"/>
<path d="M6678 4759 c-22 -7 -22 -7 5 -8 27 -1 27 -1 27 -77 0 -54 3 -75 12
-72 8 3 11 23 9 56 -3 70 5 92 35 92 13 0 24 3 24 8 0 9 -80 10 -112 1z"/>
<path d="M3631 4698 c0 -35 3 -71 5 -80 9 -31 24 -20 24 17 0 34 1 35 40 35
39 0 40 -1 40 -35 0 -24 5 -35 15 -35 12 0 15 16 15 80 0 64 -3 80 -15 80 -10
0 -15 -11 -15 -35 0 -34 -1 -35 -40 -35 -39 0 -40 1 -40 35 0 24 -5 35 -15 35
-11 0 -14 -14 -14 -62z"/>
<path d="M3810 4680 c0 -47 4 -80 10 -80 6 0 10 33 10 80 0 47 -4 80 -10 80
-6 0 -10 -33 -10 -80z"/>
<path d="M5571 4698 c0 -69 5 -98 20 -98 5 0 9 36 9 80 0 62 -3 80 -14 80 -11
0 -15 -15 -15 -62z"/>
<path d="M5640 4680 c0 -47 4 -80 10 -80 6 0 10 16 10 35 0 33 2 35 35 35 19
0 35 5 35 10 0 6 -16 10 -35 10 -32 0 -35 2 -35 29 0 28 3 30 43 34 40 3 40 4
-10 5 l-53 2 0 -80z"/>
<path d="M5780 4680 c0 -47 4 -80 10 -80 6 0 10 33 10 80 0 47 -4 80 -10 80
-6 0 -10 -33 -10 -80z"/>
<path d="M6340 4680 c0 -64 3 -80 15 -80 11 0 15 11 15 36 l0 35 43 -3 c39 -3
42 -5 45 -35 6 -65 22 -31 22 47 0 78 -16 112 -22 48 -3 -31 -6 -33 -45 -36
l-43 -3 0 35 c0 25 -4 36 -15 36 -12 0 -15 -16 -15 -80z"/>
<path d="M6536 4686 c-30 -86 -30 -86 -12 -86 8 0 17 12 20 26 5 18 12 24 22
20 9 -3 24 -6 35 -6 10 0 19 -6 19 -14 0 -17 18 -31 27 -22 3 3 -6 39 -22 81
-36 100 -53 101 -89 1z m67 -18 c-6 -11 -43 -10 -43 1 0 5 5 22 11 38 l11 28
13 -30 c7 -16 11 -33 8 -37z"/>
<path d="M4640 4615 c0 -9 5 -15 11 -13 6 2 11 8 11 13 0 5 -5 11 -11 13 -6 2
-11 -4 -11 -13z"/>
<path d="M6681 4140 c-56 -8 -91 -46 -91 -96 0 -48 33 -79 104 -95 60 -13 82
-29 72 -54 -14 -37 -99 -34 -111 4 -7 22 -75 29 -75 7 0 -60 54 -99 135 -98
67 1 101 15 120 51 33 66 4 110 -95 144 -51 18 -66 28 -68 45 -6 38 61 50 89
16 16 -19 79 -19 79 0 0 26 -44 67 -80 74 -19 5 -55 5 -79 2z"/>
<path d="M2641 4133 c0 -4 24 -78 53 -163 l53 -155 54 0 53 0 53 150 c29 83
53 156 53 163 0 7 -14 12 -40 12 l-39 0 -21 -72 c-36 -123 -51 -168 -58 -168
-4 0 -23 53 -43 118 l-35 117 -42 3 c-23 2 -42 0 -41 -5z"/>
<path d="M3010 3975 l0 -165 35 0 35 0 0 165 0 165 -35 0 -35 0 0 -165z"/>
<path d="M3181 4114 c-25 -21 -31 -33 -31 -67 0 -54 20 -73 101 -97 39 -12 70
-27 73 -37 18 -45 -74 -63 -108 -21 -25 31 -76 32 -76 1 0 -12 11 -34 24 -50
21 -25 32 -28 98 -31 69 -4 76 -2 106 23 26 22 32 34 32 66 0 52 -30 82 -102
103 -60 17 -82 35 -72 59 11 31 94 28 94 -3 0 -6 18 -10 40 -10 45 0 44 -1 28
35 -17 37 -57 55 -122 55 -44 0 -60 -5 -85 -26z"/>
<path d="M3450 3975 l0 -165 40 0 39 0 3 68 3 67 44 3 c84 6 91 1 91 -73 l0
-65 35 0 35 0 0 165 0 165 -35 0 -34 0 -3 -67 -3 -68 -65 0 -65 0 -3 68 -3 67
-39 0 -40 0 0 -165z"/>
<path d="M3842 3983 c-28 -87 -52 -162 -52 -166 0 -4 17 -7 39 -7 34 0 39 3
47 33 9 31 11 32 71 35 l61 3 12 -36 c11 -32 15 -35 51 -35 34 0 39 3 35 18
-3 9 -28 82 -54 162 l-49 145 -54 3 -54 3 -53 -158z m132 15 c8 -28 13 -55 10
-60 -6 -9 -74 -11 -74 -2 0 20 33 114 40 114 5 0 15 -23 24 -52z"/>
<path d="M4160 3975 l0 -165 110 0 110 0 0 30 0 29 -71 3 -71 3 1 133 2 132
-41 0 -40 0 0 -165z"/>
<path d="M4593 4120 c-82 -50 -95 -193 -24 -272 25 -28 36 -32 93 -36 76 -5
120 13 143 58 22 42 19 50 -16 50 -21 0 -40 -9 -55 -25 -37 -40 -94 -32 -119
16 -28 54 -11 147 30 163 33 12 67 5 89 -19 24 -25 86 -36 86 -15 0 25 -32 71
-60 85 -42 22 -128 19 -167 -5z"/>
<path d="M4880 3975 l0 -165 35 0 35 0 0 65 c0 74 7 79 91 73 l44 -3 3 -67 3
-68 39 0 40 0 0 165 0 165 -41 0 -40 0 2 -67 3 -68 -49 -3 c-89 -6 -95 -1 -95
73 l0 65 -35 0 -35 0 0 -165z"/>
<path d="M5271 3988 c-28 -84 -51 -159 -51 -165 0 -8 15 -13 40 -13 37 0 39 2
46 35 l6 35 63 0 c62 0 62 0 71 -32 9 -30 14 -33 51 -36 l42 -3 -55 165 -56
166 -52 0 -53 0 -52 -152z m136 -25 c5 -32 5 -33 -31 -33 -42 0 -45 11 -19 86
l17 49 14 -35 c8 -19 16 -50 19 -67z"/>
<path d="M5592 4005 c3 -131 4 -135 30 -162 23 -22 38 -28 91 -31 46 -3 73 0
95 12 52 27 62 59 62 196 l0 120 -40 0 -40 0 0 -118 c0 -130 -9 -152 -61 -152
-55 1 -69 33 -69 164 l0 106 -36 0 -36 0 4 -135z"/>
<path d="M5920 3975 l0 -165 40 0 39 0 3 58 c3 49 6 57 23 57 14 0 29 -17 50
-57 29 -57 31 -58 73 -58 l43 0 -32 60 -31 59 26 31 c44 53 29 142 -29 168
-14 7 -66 12 -115 12 l-90 0 0 -165z m168 93 c7 -7 12 -24 12 -40 0 -32 -24
-48 -69 -48 -30 0 -31 1 -31 50 l0 50 38 0 c21 0 43 -5 50 -12z"/>
<path d="M6280 3988 c-30 -84 -55 -159 -58 -166 -3 -10 6 -12 39 -10 39 3 44
6 51 36 9 32 9 32 72 32 63 0 63 0 72 -32 9 -30 14 -33 51 -36 l42 -3 -57 165
-57 166 -51 0 -52 0 -52 -152z m124 18 c9 -30 16 -59 16 -65 0 -11 -62 -16
-73 -5 -5 5 18 98 30 117 8 13 11 7 27 -47z"/>
<path d="M6890 3975 l0 -165 40 0 40 0 0 165 0 165 -40 0 -40 0 0 -165z"/>
<path d="M7071 4031 c52 -96 59 -116 59 -165 l0 -56 40 0 40 0 0 56 c0 49 7
69 55 159 30 56 55 105 55 109 0 3 -17 6 -38 6 -37 0 -39 -2 -67 -60 -16 -34
-34 -65 -40 -70 -8 -7 -22 12 -45 60 l-34 70 -42 0 -42 0 59 -109z"/>
<path d="M7390 3988 c-29 -84 -55 -159 -58 -165 -3 -9 8 -13 36 -13 37 0 41 3
52 35 l12 35 62 0 c63 0 63 0 72 -32 9 -30 14 -33 51 -36 l42 -3 -57 165 -57
166 -51 0 -51 0 -53 -152z m124 18 c22 -73 21 -76 -18 -76 -52 0 -52 4 -11
118 8 21 13 13 29 -42z"/>
<path d="M2500 3660 c0 -7 887 -10 2640 -10 1753 0 2640 3 2640 10 0 7 -887
10 -2640 10 -1753 0 -2640 -3 -2640 -10z"/>
<path d="M4401 2847 c-22 -27 -19 -147 4 -147 11 0 15 12 15 44 0 26 5 47 13
50 10 5 10 7 0 12 -18 8 -16 34 2 34 8 0 15 5 15 10 0 15 -36 12 -49 -3z"/>
<path d="M3050 2775 c0 -43 4 -75 10 -75 6 0 10 13 10 29 0 42 9 61 30 61 21
0 30 -19 30 -61 0 -16 5 -29 10 -29 12 0 13 80 1 99 -6 9 -19 12 -40 8 -28 -6
-31 -4 -31 18 0 14 -4 25 -10 25 -6 0 -10 -32 -10 -75z"/>
<path d="M4610 2776 c0 -62 3 -76 16 -76 13 0 15 12 12 72 -2 46 -7 73 -15 76
-10 3 -13 -16 -13 -72z"/>
<path d="M4670 2775 c0 -43 4 -75 10 -75 6 0 10 32 10 75 0 43 -4 75 -10 75
-6 0 -10 -32 -10 -75z"/>
<path d="M5510 2775 c0 -60 3 -75 15 -75 12 0 15 15 15 75 0 60 -3 75 -15 75
-12 0 -15 -15 -15 -75z"/>
<path d="M6000 2825 c0 -21 -4 -24 -27 -19 -40 7 -57 -8 -55 -51 2 -50 6 -54
62 -53 l50 1 0 74 c0 58 -3 73 -15 73 -9 0 -15 -9 -15 -25z m-5 -70 c0 -23 -5
-31 -21 -33 -24 -3 -38 20 -28 50 4 13 13 18 27 16 17 -2 22 -10 22 -33z"/>
<path d="M6200 2775 c0 -60 3 -75 15 -75 11 0 15 12 15 46 0 41 2 45 23 42 18
-2 23 -10 25 -45 2 -24 8 -43 13 -43 6 0 9 22 7 53 -3 51 -3 52 -35 52 -28 0
-33 4 -33 22 0 14 -6 23 -15 23 -12 0 -15 -15 -15 -75z"/>
<path d="M5708 2823 c-3 -10 -2 -40 1 -68 5 -42 10 -51 29 -53 12 -2 22 1 22
7 0 6 -4 11 -10 11 -15 0 -12 67 3 74 10 5 10 7 0 12 -7 3 -13 12 -13 20 0 20
-27 17 -32 -3z"/>
<path d="M6111 2819 c-8 -14 -9 -24 -3 -28 6 -3 12 -24 14 -46 2 -34 7 -41 28
-43 21 -3 22 -2 11 12 -7 8 -12 32 -11 53 4 58 1 73 -13 73 -7 0 -18 -10 -26
-21z"/>
<path d="M3189 2793 c-12 -15 -12 -16 6 -11 11 3 26 7 34 9 7 2 15 -1 18 -8 3
-7 -10 -16 -29 -21 -26 -6 -33 -13 -33 -33 0 -22 4 -24 48 -25 l47 -1 0 42 c0
22 -5 46 -12 53 -17 17 -63 15 -79 -5z m61 -58 c0 -16 -27 -32 -37 -22 -3 4
-3 13 0 22 8 20 37 20 37 0z"/>
<path d="M3314 2795 c-10 -25 3 -43 35 -50 31 -7 39 -19 21 -30 -5 -3 -18 0
-29 7 -22 14 -41 4 -24 -13 6 -6 26 -9 44 -7 27 2 35 8 37 26 3 18 -3 25 -27
33 -17 6 -31 15 -31 19 0 16 21 22 36 9 16 -13 30 -6 19 10 -10 17 -75 13 -81
-4z"/>
<path d="M3497 2803 c-17 -17 -5 -45 23 -56 17 -6 30 -15 30 -19 0 -15 -21
-19 -36 -7 -17 14 -33 4 -17 -12 6 -6 26 -9 44 -7 29 2 34 7 34 28 0 19 -7 26
-32 34 -18 5 -33 12 -33 17 0 15 22 21 33 10 6 -6 17 -11 25 -11 12 0 12 3 2
15 -13 15 -61 21 -73 8z"/>
<path d="M3610 2768 c0 -58 8 -67 58 -65 l42 1 0 53 c0 63 -18 71 -22 11 -2
-36 -7 -44 -25 -46 -21 -3 -23 1 -23 42 0 34 -4 46 -15 46 -11 0 -15 -11 -15
-42z"/>
<path d="M3756 2788 c-20 -29 -20 -52 0 -72 19 -20 68 -21 83 -3 17 21 2 28
-24 11 -20 -13 -24 -13 -35 1 -18 21 -4 65 20 65 11 0 20 -4 20 -10 0 -5 7
-10 15 -10 13 0 14 4 5 20 -15 28 -64 27 -84 -2z"/>
<path d="M3880 2791 c-26 -49 1 -94 54 -89 20 2 32 9 34 21 4 17 2 18 -21 3
-21 -14 -26 -15 -36 -2 -19 23 -10 60 17 64 12 2 22 -1 22 -7 0 -6 7 -11 15
-11 13 0 14 4 5 20 -15 27 -75 28 -90 1z"/>
<path d="M4016 2794 c-21 -20 -20 -58 0 -79 19 -19 75 -17 82 3 3 11 0 12 -17
2 -17 -9 -26 -9 -37 1 -24 20 -16 29 26 29 41 0 47 8 30 41 -13 23 -62 26 -84
3z m64 -19 c0 -16 -35 -21 -44 -6 -8 12 4 21 26 21 10 0 18 -7 18 -15z"/>
<path d="M4140 2795 c-16 -19 -6 -32 37 -50 29 -12 34 -18 25 -27 -10 -10 -17
-10 -33 0 -23 15 -39 8 -22 -9 6 -6 26 -9 44 -7 29 2 34 7 34 28 0 17 -6 26
-20 28 -31 6 -48 23 -35 36 7 7 14 6 22 -2 7 -7 18 -12 26 -12 12 0 12 3 2 15
-16 19 -64 19 -80 0z"/>
<path d="M4264 2795 c-10 -25 3 -43 35 -50 17 -4 31 -11 31 -16 0 -16 -29 -22
-45 -9 -17 14 -31 8 -20 -9 9 -16 71 -13 85 4 16 19 0 40 -35 49 -14 4 -25 11
-25 16 0 16 21 22 36 9 16 -13 30 -6 19 10 -10 17 -75 13 -81 -4z"/>
<path d="M4470 2767 c0 -53 12 -66 63 -64 37 1 37 1 37 44 0 24 0 46 1 50 0 4
-4 9 -10 11 -6 2 -11 -9 -11 -26 0 -43 -9 -62 -30 -62 -15 0 -20 9 -22 42 -4
59 -28 63 -28 5z"/>
<path d="M4725 2793 c4 -10 14 -38 23 -62 14 -41 14 -45 -3 -57 -26 -20 -10
-30 17 -12 14 9 31 38 41 69 10 30 21 60 24 67 2 6 -2 12 -11 12 -9 0 -18 -13
-22 -35 -9 -50 -21 -52 -34 -5 -7 25 -17 40 -26 40 -11 0 -14 -5 -9 -17z"/>
<path d="M4913 2784 c-15 -24 -15 -29 -2 -53 16 -29 61 -40 84 -21 23 19 6 31
-19 15 -20 -14 -25 -14 -35 -1 -19 23 -10 60 17 64 12 2 22 -1 22 -7 0 -6 7
-11 15 -11 18 0 19 12 3 28 -22 22 -66 14 -85 -14z"/>
<path d="M5053 2798 c-34 -44 -14 -98 35 -98 36 0 52 17 52 55 0 17 -5 36 -12
43 -16 16 -63 15 -75 0z m58 -25 c3 -47 -15 -71 -38 -51 -14 11 -18 50 -6 61
13 14 43 7 44 -10z"/>
<path d="M5175 2801 c-3 -2 -5 -26 -5 -53 0 -35 4 -48 14 -48 10 0 16 14 18
42 2 31 8 44 21 46 14 3 17 -4 17 -42 0 -33 4 -46 14 -46 10 0 16 14 18 42 2
31 8 44 21 46 14 3 17 -4 17 -42 0 -35 4 -46 16 -46 12 0 14 10 12 53 l-3 52
-78 0 c-43 1 -80 -1 -82 -4z"/>
<path d="M5373 2794 c-9 -24 2 -137 15 -142 8 -2 12 7 12 26 0 26 3 29 25 24
14 -2 32 1 40 8 18 15 20 74 3 88 -17 14 -89 11 -95 -4z m81 -20 c9 -24 8 -31
-10 -49 -12 -12 -19 -13 -30 -4 -15 12 -19 51 -7 62 12 13 41 7 47 -9z"/>
<path d="M5582 2798 c-17 -17 -15 -73 2 -87 19 -16 78 -10 84 8 4 10 0 12 -14
6 -32 -13 -48 -11 -52 7 -2 13 5 17 37 20 40 3 40 4 28 28 -14 28 -64 39 -85
18z m63 -23 c0 -5 -10 -11 -22 -13 -16 -2 -23 2 -23 13 0 11 7 15 23 13 12 -2
22 -7 22 -13z"/>
<path d="M5793 2784 c-15 -24 -15 -29 -2 -53 16 -28 63 -41 82 -22 16 16 0 26
-18 11 -12 -10 -18 -10 -30 0 -25 21 -17 30 25 30 32 0 40 4 40 18 0 47 -69
59 -97 16z m71 -3 c8 -12 -20 -22 -39 -15 -19 8 -9 24 15 24 10 0 21 -4 24 -9z"/>
<path d="M6347 2792 c-21 -23 -22 -56 -1 -76 18 -18 69 -21 79 -5 10 16 -3 23
-18 10 -17 -14 -47 -4 -47 15 0 10 12 14 40 14 44 0 52 16 24 44 -21 21 -57
20 -77 -2z m63 -18 c0 -10 -7 -14 -22 -12 -32 5 -35 28 -4 28 17 0 26 -5 26
-16z"/>
<path d="M6524 2784 c-26 -39 -9 -78 34 -82 35 -4 66 13 56 30 -4 6 -10 6 -17
-1 -14 -14 -44 -14 -52 0 -13 19 4 59 25 59 11 0 20 -4 20 -10 0 -5 7 -10 15
-10 18 0 19 12 3 28 -21 21 -66 14 -84 -14z"/>
<path d="M6653 2784 c-15 -24 -15 -29 -2 -53 16 -29 61 -40 85 -20 17 14 19
70 2 87 -22 22 -66 14 -85 -14z m73 -19 c6 -24 -9 -55 -27 -55 -14 0 -30 40
-24 60 9 29 43 25 51 -5z"/>
<path d="M6780 2766 c0 -53 12 -64 68 -63 l42 0 0 53 c0 40 -4 54 -14 54 -10
0 -16 -14 -18 -42 -2 -35 -7 -43 -23 -43 -16 0 -21 8 -23 43 -2 28 -8 42 -18
42 -10 0 -14 -12 -14 -44z"/>
<path d="M6920 2753 c0 -40 4 -53 15 -53 11 0 15 11 15 41 0 32 4 42 20 46 32
9 23 21 -15 20 l-35 -1 0 -53z"/>
<path d="M7014 2796 c-10 -26 3 -44 35 -51 17 -4 31 -11 31 -16 0 -16 -29 -22
-45 -9 -17 14 -31 8 -20 -9 9 -16 71 -13 85 4 16 19 0 40 -36 49 -14 4 -23 12
-21 19 5 13 11 13 41 1 14 -5 17 -3 14 7 -7 21 -77 24 -84 5z"/>
<path d="M7146 2794 c-18 -18 -20 -47 -6 -75 12 -21 74 -27 85 -8 10 16 -3 23
-18 10 -17 -14 -47 -4 -47 15 0 10 12 14 40 14 28 0 40 4 40 14 0 22 -29 46
-55 46 -13 0 -31 -7 -39 -16z m57 -19 c-4 -15 -36 -12 -41 3 -3 9 3 13 19 10
13 -1 23 -7 22 -13z"/>
<path d="M4295 2368 c-9 -26 -65 -248 -65 -258 0 -5 7 -10 15 -10 8 0 19 16
24 38 6 20 22 78 36 127 29 106 30 115 10 115 -9 0 -18 -6 -20 -12z"/>
<path d="M3779 2368 c0 -2 -3 -25 -5 -53 -6 -71 4 -133 27 -156 27 -27 98 -26
133 2 25 19 26 25 26 115 0 87 -1 94 -20 94 -18 0 -20 -7 -20 -83 0 -72 -3
-87 -20 -102 -16 -15 -26 -17 -48 -9 -26 9 -27 12 -32 99 -4 75 -8 90 -22 93
-10 2 -18 2 -19 0z"/>
<path d="M4011 2348 c7 -13 23 -40 37 -60 l24 -37 -29 -43 c-47 -68 -47 -68
-19 -68 17 0 31 10 46 35 12 19 25 35 30 35 4 0 17 -16 29 -35 15 -25 27 -35
46 -35 l25 0 -35 55 c-19 30 -35 57 -35 60 0 4 13 25 28 48 46 67 46 67 18 67
-19 0 -31 -10 -48 -40 -13 -22 -26 -40 -29 -40 -3 0 -15 18 -28 40 -17 30 -29
40 -47 40 -22 0 -24 -2 -13 -22z"/>
<path d="M4364 2355 c-4 -8 -4 -51 -2 -96 3 -70 6 -83 27 -100 35 -29 105 -26
136 6 23 22 25 32 25 115 0 83 -1 90 -20 90 -18 0 -20 -7 -20 -83 0 -69 -3
-87 -18 -100 -25 -22 -48 -21 -72 3 -17 17 -20 33 -20 100 0 65 -3 80 -15 80
-9 0 -18 -7 -21 -15z"/>
<path d="M4610 2256 c0 -110 1 -116 20 -116 20 0 21 5 18 112 -3 98 -5 113
-20 116 -16 3 -18 -7 -18 -112z"/>
<path d="M4777 2363 c-4 -3 -7 -55 -7 -115 l0 -108 66 0 c59 0 68 3 95 29 23
24 29 38 29 75 0 58 -17 94 -51 112 -28 14 -120 20 -132 7z m121 -49 c17 -12
22 -25 22 -59 0 -25 -6 -50 -15 -58 -17 -18 -70 -31 -85 -22 -5 3 -10 40 -10
81 l0 74 33 0 c18 0 43 -7 55 -16z"/>
<path d="M5010 2255 l0 -115 75 0 c60 0 75 3 75 15 0 12 -13 15 -55 15 l-55 0
0 35 0 35 50 0 c38 0 50 4 50 15 0 11 -12 15 -50 15 -49 0 -50 1 -50 30 0 30
1 30 55 30 48 0 55 2 55 20 0 18 -7 20 -75 20 l-75 0 0 -115z"/>
<path d="M5225 2345 c-46 -45 -26 -87 52 -106 48 -13 63 -30 43 -54 -18 -21
-57 -19 -77 5 -22 25 -43 26 -43 1 0 -28 38 -51 85 -51 53 0 85 23 85 60 0 34
-21 58 -58 66 -52 11 -60 15 -65 28 -13 34 53 55 77 25 12 -15 46 -22 46 -9 0
4 -9 19 -21 34 -28 36 -89 37 -124 1z"/>
<path d="M5420 2255 c0 -108 1 -115 20 -115 19 0 20 7 20 115 0 108 -1 115
-20 115 -19 0 -20 -7 -20 -115z"/>
<path d="M5547 2350 c-53 -42 -53 -143 -2 -187 19 -17 39 -23 71 -23 58 0 94
32 94 85 0 35 0 35 -45 35 -33 0 -45 -4 -45 -15 0 -9 9 -15 25 -15 33 0 33
-25 0 -46 -48 -31 -95 5 -95 74 0 59 67 97 100 57 13 -16 60 -21 60 -6 0 5
-14 21 -31 35 -38 33 -95 35 -132 6z"/>
<path d="M5750 2255 c0 -108 1 -115 20 -115 18 0 20 7 20 70 0 39 4 70 8 70 5
0 30 -31 56 -70 31 -45 55 -70 67 -70 18 0 19 9 19 115 0 108 -1 115 -20 115
-18 0 -20 -7 -20 -70 0 -38 -4 -70 -9 -70 -4 0 -29 32 -55 70 -31 48 -53 70
-66 70 -19 0 -20 -7 -20 -115z"/>
<path d="M5997 2363 c-3 -4 -5 -56 -6 -115 l-2 -108 26 0 26 0 -3 112 c-3 96
-6 113 -20 116 -9 2 -18 -1 -21 -5z"/>
<path d="M6080 2255 c0 -108 1 -115 20 -115 18 0 20 7 20 70 0 39 3 70 8 70 4
-1 27 -31 52 -68 30 -44 53 -68 68 -70 22 -3 22 -2 22 113 0 115 0 116 -22
113 -21 -3 -23 -10 -28 -75 l-5 -72 -49 74 c-32 49 -55 75 -67 75 -18 0 -19
-9 -19 -115z"/>
<path d="M6364 2355 c-32 -21 -47 -69 -41 -122 7 -63 40 -93 103 -93 58 0 94
32 94 85 0 35 0 35 -45 35 -33 0 -45 -4 -45 -15 0 -9 9 -15 25 -15 30 0 33
-20 7 -43 -60 -55 -135 51 -86 121 18 26 65 30 88 7 16 -16 56 -21 56 -6 0 5
-14 21 -31 35 -35 30 -92 35 -125 11z"/>
<path d="M3090 719 l0 -72 37 6 c46 8 64 26 65 66 1 42 -27 71 -69 71 l-33 0
0 -71z m78 49 c22 -22 15 -76 -13 -94 -40 -26 -55 -13 -55 51 0 54 1 55 28 55
15 0 33 -5 40 -12z"/>
<path d="M6562 778 c-14 -14 -16 -35 -4 -42 5 -3 8 5 8 17 -1 18 4 22 31 22
17 0 29 3 26 7 -7 12 -48 9 -61 -4z"/>
<path d="M3340 729 c0 -51 12 -79 33 -79 5 0 1 8 -8 17 -12 12 -16 27 -12 54
3 20 1 43 -4 50 -6 9 -9 -6 -9 -42z"/>
<path d="M7060 726 c0 -36 5 -58 15 -66 9 -7 18 -10 22 -6 3 3 1 6 -5 6 -8 0
-12 21 -12 60 0 33 -4 60 -10 60 -5 0 -10 -24 -10 -54z"/>
<path d="M3285 704 c2 -59 15 -70 15 -11 0 25 -4 48 -8 51 -4 2 -7 -15 -7 -40z"/>
<path d="M3468 740 c21 -24 13 -32 -28 -28 -23 2 -40 -1 -40 -7 0 -6 18 -9 45
-7 48 4 58 20 28 43 -15 11 -16 11 -5 -1z"/>
<path d="M6673 700 c0 -30 2 -43 4 -27 2 15 2 39 0 55 -2 15 -4 2 -4 -28z"/>
<path d="M6725 739 c-4 -6 -5 -12 -2 -15 2 -3 7 2 10 11 7 17 1 20 -8 4z"/>
<path d="M6784 713 c1 -33 -2 -38 -23 -41 -13 -2 -28 2 -33 10 -8 10 -9 10 -5
-2 2 -9 16 -15 36 -15 28 0 32 -3 28 -22 -2 -12 0 -20 4 -17 12 7 12 124 0
124 -4 0 -8 -17 -7 -37z"/>
<path d="M6843 705 c0 -27 2 -38 4 -22 2 15 2 37 0 50 -2 12 -4 0 -4 -28z"/>
<path d="M6898 713 c5 -59 10 -63 11 -10 1 26 -3 47 -7 47 -4 0 -6 -17 -4 -37z"/>
<path d="M7006 704 c1 -59 14 -70 14 -11 0 25 -3 48 -7 50 -5 3 -8 -15 -7 -39z"/>
<path d="M7132 715 c-2 -40 11 -65 33 -65 5 0 2 6 -7 13 -9 7 -18 31 -21 53
l-4 39 -1 -40z"/>
<path d="M7198 710 c-2 -23 0 -46 4 -53 4 -7 8 12 8 41 0 62 -6 68 -12 12z"/>
<path d="M7240 698 c0 -28 2 -49 4 -47 8 9 13 99 5 99 -5 0 -9 -23 -9 -52z"/>
<path d="M7316 734 c-12 -31 -6 -63 14 -74 23 -12 60 -5 60 12 0 7 -5 6 -15
-2 -17 -14 -55 -4 -55 16 0 10 12 14 39 14 34 0 38 2 34 20 -3 11 -9 22 -13
25 -5 3 -6 -4 -3 -15 5 -17 0 -20 -26 -20 -33 0 -39 8 -19 28 8 8 8 12 1 12
-6 0 -14 -7 -17 -16z"/>
<path d="M6596 720 c30 -12 38 -28 24 -45 -17 -20 -47 -19 -59 3 -9 15 -10 15
-11 1 0 -17 19 -29 45 -29 15 0 45 27 45 40 0 15 -31 40 -48 39 -13 0 -12 -2
4 -9z"/>
<path d="M3230 695 c-15 -18 3 -45 29 -44 11 0 9 3 -6 9 -13 5 -23 14 -23 20
0 6 10 15 23 20 15 6 17 9 6 9 -9 1 -22 -6 -29 -14z"/>
<path d="M6950 695 c-15 -18 3 -46 29 -44 14 1 14 2 -1 6 -27 7 -30 33 -5 43
15 6 17 9 6 9 -9 1 -22 -6 -29 -14z"/>
<path d="M3419 667 c17 -21 45 -22 61 -2 15 18 -1 20 -18 3 -10 -10 -17 -10
-35 1 -20 13 -21 13 -8 -2z"/>
<path d="M6730 620 c8 -5 22 -9 30 -9 10 0 8 3 -5 9 -27 12 -43 12 -25 0z"/>
</g>
</svg>
