<svg width="27" height="25" viewBox="0 0 27 25" fill="none" xmlns="http://www.w3.org/2000/svg">
<g id="Group 1000002074">
<rect id="Rectangle 4268" x="0.59375" y="0.113281" width="26.2515" height="23.9774" rx="8" fill="#F7F7FF"/>
<path id="Vector" d="M13.7185 6.75234C13.2863 6.75234 12.9359 7.10271 12.9359 7.53491V16.6696C12.9359 17.1018 13.2863 17.4522 13.7185 17.4522C14.1507 17.4522 14.5011 17.1018 14.5011 16.6696V7.53491C14.5011 7.10271 14.1507 6.75234 13.7185 6.75234Z" fill="#6F6C90" stroke="#6F6C90" stroke-width="0.3" stroke-linecap="round"/>
<path id="Vector_2" d="M8.60121 11.3734C8.19927 11.3734 7.87344 11.6993 7.87344 12.1012C7.87344 12.5031 8.19927 12.829 8.60121 12.829H18.8318C19.2338 12.829 19.5596 12.5031 19.5596 12.1012C19.5596 11.6993 19.2338 11.3734 18.8318 11.3734H8.60121Z" fill="#6F6C90" stroke="#6F6C90" stroke-width="0.3" stroke-linecap="round"/>
</g>
</svg>
