<svg width="334" height="190" viewBox="0 0 334 190" fill="none" xmlns="http://www.w3.org/2000/svg">
<path d="M126.35 74.7784L127.819 74.4772L126.35 74.7784ZM223.608 89.0473L222.59 87.9461L223.608 89.0473ZM0.0872054 38.4749L0.192771 55.795L15.1397 47.0435L0.0872054 38.4749ZM333.011 181.536C332.077 181.747 331.126 181.954 330.16 182.157L330.775 185.093C331.757 184.887 332.723 184.677 333.672 184.462L333.011 181.536ZM324.342 183.285C322.441 183.625 320.49 183.947 318.492 184.248L318.939 187.214C320.963 186.909 322.942 186.583 324.87 186.238L324.342 183.285ZM312.614 185.055C310.682 185.294 308.714 185.514 306.713 185.712L307.008 188.698C309.034 188.497 311.027 188.275 312.984 188.032L312.614 185.055ZM300.793 186.224C298.844 186.368 296.869 186.491 294.871 186.591L295.02 189.587C297.043 189.486 299.042 189.362 301.015 189.216L300.793 186.224ZM288.955 186.814C286.997 186.864 285.021 186.892 283.028 186.894L283.032 189.894C285.049 189.892 287.05 189.864 289.032 189.813L288.955 186.814ZM277.094 186.829C275.128 186.783 273.149 186.712 271.16 186.616L271.014 189.612C273.029 189.71 275.033 189.782 277.024 189.828L277.094 186.829ZM265.243 186.252C263.283 186.106 261.316 185.934 259.343 185.735L259.041 188.72C261.041 188.922 263.035 189.096 265.02 189.244L265.243 186.252ZM253.454 185.059C251.5 184.807 249.543 184.528 247.584 184.219L247.117 187.183C249.104 187.496 251.09 187.779 253.071 188.034L253.454 185.059ZM241.747 183.212C239.812 182.849 237.878 182.456 235.947 182.032L235.304 184.962C237.266 185.393 239.229 185.792 241.194 186.161L241.747 183.212ZM230.185 180.672C228.274 180.189 226.368 179.674 224.47 179.127L223.638 182.009C225.57 182.566 227.507 183.09 229.449 183.581L230.185 180.672ZM218.816 177.391C216.944 176.781 215.081 176.137 213.228 175.459L212.197 178.276C214.084 178.967 215.981 179.622 217.886 180.243L218.816 177.391ZM207.716 173.323C205.894 172.578 204.085 171.797 202.29 170.979L201.046 173.709C202.877 174.543 204.723 175.34 206.58 176.1L207.716 173.323ZM196.968 168.424C195.214 167.538 193.477 166.615 191.757 165.653L190.293 168.271C192.05 169.254 193.824 170.197 195.615 171.102L196.968 168.424ZM186.668 162.66C184.999 161.629 183.348 160.558 181.719 159.448L180.03 161.927C181.696 163.063 183.384 164.158 185.091 165.213L186.668 162.66ZM176.928 156.018C175.362 154.842 173.819 153.625 172.299 152.367L170.386 154.678C171.942 155.966 173.523 157.212 175.126 158.417L176.928 156.018ZM167.842 148.494C166.401 147.179 164.984 145.824 163.594 144.427L161.468 146.543C162.892 147.974 164.344 149.363 165.82 150.71L167.842 148.494ZM159.544 140.152C158.233 138.7 156.949 137.206 155.694 135.671L153.371 137.569C154.657 139.143 155.973 140.674 157.316 142.162L159.544 140.152ZM152.084 131.03C150.926 129.465 149.797 127.861 148.697 126.215L146.203 127.882C147.329 129.568 148.486 131.211 149.672 132.814L152.084 131.03ZM145.523 121.215C144.524 119.556 143.553 117.857 142.611 116.119L139.973 117.548C140.937 119.326 141.93 121.064 142.954 122.763L145.523 121.215ZM139.918 110.871C139.066 109.114 138.242 107.321 137.448 105.488L134.695 106.681C135.506 108.552 136.348 110.386 137.219 112.181L139.918 110.871ZM135.227 100.053C134.523 98.2271 133.848 96.3647 133.203 94.4657L130.363 95.4311C131.021 97.3675 131.709 99.2675 132.427 101.132L135.227 100.053ZM131.419 88.8705C130.862 87.001 130.332 85.098 129.83 83.1608L126.926 83.9132C127.437 85.8852 127.977 87.8232 128.545 89.728L131.419 88.8705ZM128.449 77.4206C128.232 76.4476 128.022 75.4665 127.819 74.4772L124.881 75.0795C125.087 76.0853 125.3 77.083 125.52 78.0725L128.449 77.4206ZM127.819 74.4772C127.611 73.4594 127.412 72.4544 127.223 71.4621L124.276 72.023C124.468 73.0294 124.669 74.0483 124.881 75.0795L127.819 74.4772ZM126.206 65.6592C125.896 63.712 125.626 61.8182 125.395 59.9766L122.418 60.3498C122.653 62.226 122.928 64.153 123.244 66.1319L126.206 65.6592ZM124.772 54.077C124.605 52.1025 124.488 50.1953 124.417 48.3536L121.419 48.4684C121.492 50.3584 121.612 52.3117 121.783 54.3298L124.772 54.077ZM124.354 42.4944C124.391 40.4752 124.491 38.5471 124.652 36.7073L121.663 36.4467C121.496 38.3589 121.392 40.3557 121.354 42.4393L124.354 42.4944ZM125.366 31.116C125.712 29.0977 126.142 27.2079 126.648 25.4414L123.764 24.6152C123.226 26.4937 122.773 28.4902 122.409 30.6081L125.366 31.116ZM128.574 20.0796C129.374 18.2705 130.273 16.6312 131.26 15.1515L128.764 13.487C127.676 15.1181 126.695 16.9096 125.83 18.8666L128.574 20.0796ZM134.789 10.8627C136.137 9.53843 137.592 8.40613 139.14 7.45292L137.566 4.89851C135.828 5.96889 134.196 7.23998 132.687 8.72278L134.789 10.8627ZM144.153 5.08105C145.885 4.47731 147.702 4.03897 149.594 3.75754L149.153 0.790196C147.089 1.0972 145.087 1.57816 143.165 2.24835L144.153 5.08105ZM155.238 3.37336C157.089 3.38459 158.99 3.52068 160.928 3.77442L161.317 0.799792C159.266 0.531292 157.242 0.385461 155.256 0.373421L155.238 3.37336ZM166.573 4.81641C168.407 5.24874 170.261 5.77354 172.126 6.38447L173.06 3.53347C171.119 2.89781 169.183 2.34954 167.262 1.8965L166.573 4.81641ZM177.56 8.39227C179.328 9.1182 181.097 9.91443 182.859 10.7754L184.176 8.07985C182.358 7.19165 180.53 6.36868 178.7 5.61713L177.56 8.39227ZM188.007 13.4836C189.682 14.4279 191.342 15.4265 192.983 16.4743L194.598 13.9462C192.912 12.8693 191.204 11.8423 189.48 10.8704L188.007 13.4836ZM197.801 19.7367C199.379 20.8667 200.929 22.0396 202.445 23.2504L204.317 20.9063C202.76 19.6628 201.168 18.4582 199.548 17.2977L197.801 19.7367ZM206.894 26.9998C208.349 28.2938 209.761 29.6207 211.125 30.9754L213.239 28.8469C211.836 27.4526 210.383 26.088 208.888 24.7582L206.894 26.9998ZM215.133 35.1944C216.441 36.6566 217.688 38.1423 218.866 39.6455L221.227 37.7945C220.007 36.2381 218.718 34.7028 217.369 33.1943L215.133 35.1944ZM222.275 44.3286C223.37 45.9583 224.378 47.5997 225.291 49.2455L227.915 47.7903C226.958 46.0653 225.904 44.3512 224.765 42.6553L222.275 44.3286ZM227.824 54.3952C228.593 56.1937 229.238 57.9862 229.746 59.7634L232.63 58.9379C232.084 57.03 231.397 55.1192 230.582 53.2151L227.824 54.3952ZM230.889 65.3003C231.122 67.1984 231.181 69.0653 231.053 70.8908L234.046 71.1004C234.188 69.0686 234.122 67.0085 233.867 64.9344L230.889 65.3003ZM230.067 76.3391C229.545 78.0751 228.821 79.7674 227.879 81.4059L230.48 82.9011C231.537 81.0625 232.352 79.1583 232.94 77.2029L230.067 76.3391ZM224.614 85.8933C223.99 86.5901 223.316 87.2748 222.59 87.9461L224.627 90.1484C225.419 89.4154 226.16 88.6641 226.848 87.8954L224.614 85.8933ZM222.59 87.9461C221.887 88.5966 221.164 89.2296 220.424 89.8454L222.342 92.1521C223.123 91.5031 223.884 90.8353 224.627 90.1484L222.59 87.9461ZM215.797 93.313C214.212 94.3838 212.561 95.3904 210.847 96.3341L212.294 98.962C214.084 97.9763 215.813 96.9226 217.476 95.799L215.797 93.313ZM205.638 98.927C203.885 99.7134 202.08 100.443 200.225 101.118L201.251 103.937C203.171 103.239 205.044 102.482 206.866 101.664L205.638 98.927ZM194.687 102.928C192.843 103.467 190.958 103.956 189.036 104.399L189.708 107.322C191.685 106.868 193.626 106.363 195.528 105.808L194.687 102.928ZM183.296 105.56C181.39 105.895 179.453 106.187 177.488 106.438L177.867 109.414C179.878 109.157 181.861 108.858 183.815 108.514L183.296 105.56ZM171.629 107.055C169.702 107.218 167.752 107.343 165.781 107.431L165.916 110.428C167.924 110.338 169.913 110.21 171.88 110.045L171.629 107.055ZM159.904 107.588C157.955 107.605 155.989 107.589 154.009 107.541L153.935 110.54C155.948 110.589 157.947 110.606 159.931 110.588L159.904 107.588ZM148.117 107.303C146.171 107.194 144.215 107.055 142.249 106.887L141.994 109.876C143.988 110.047 145.974 110.187 147.949 110.298L148.117 107.303ZM136.379 106.303C134.431 106.082 132.476 105.833 130.517 105.558L130.1 108.529C132.085 108.808 134.066 109.06 136.041 109.284L136.379 106.303ZM124.696 104.664C122.761 104.342 120.824 103.995 118.886 103.623L118.321 106.57C120.283 106.946 122.244 107.297 124.203 107.624L124.696 104.664ZM113.099 102.441C111.18 102.025 109.262 101.586 107.348 101.124L106.645 104.04C108.581 104.507 110.521 104.952 112.463 105.373L113.099 102.441ZM101.625 99.6727C99.7229 99.1673 97.8264 98.6399 95.9371 98.0914L95.1007 100.972C97.0118 101.527 98.9302 102.061 100.854 102.572L101.625 99.6727ZM90.2853 96.3808C88.4046 95.7882 86.5332 95.1749 84.6728 94.5417L83.7062 97.3817C85.5881 98.0222 87.4813 98.6426 89.3836 99.2421L90.2853 96.3808ZM79.1116 92.5773C77.2567 91.8979 75.4151 91.1989 73.5887 90.4809L72.4912 93.273C74.3395 93.9995 76.203 94.7069 78.0798 95.3943L79.1116 92.5773ZM68.1182 88.2546C66.2988 87.4884 64.4973 86.7036 62.7157 85.9009L61.4833 88.6361C63.2878 89.4491 65.112 90.2438 66.9538 91.0194L68.1182 88.2546ZM57.3668 83.4081C55.5808 82.5473 53.818 81.6685 52.0807 80.7725L50.7056 83.4388C52.4674 84.3475 54.2544 85.2383 56.0643 86.1106L57.3668 83.4081ZM46.884 77.9988C45.154 77.0431 43.4533 76.0703 41.7843 75.081L40.2546 77.6618C41.9504 78.6669 43.6775 79.6548 45.4334 80.6248L46.884 77.9988ZM36.7519 71.987C35.0768 70.9182 33.4393 69.8328 31.8419 68.7316L30.1392 71.2016C31.7669 72.3236 33.4342 73.4288 35.1383 74.5161L36.7519 71.987ZM27.0715 65.3061C25.4861 64.1192 23.9481 62.9164 22.4605 61.6988L20.5604 64.0204C22.0828 65.2664 23.6549 66.4959 25.2736 67.7076L27.0715 65.3061ZM18.0085 57.8735C16.5305 56.5381 15.1145 55.1876 13.764 53.8235L11.6321 55.9342C13.0236 57.3398 14.4801 58.7286 15.9973 60.0995L18.0085 57.8735ZM9.78211 49.542C8.47858 48.0448 7.25598 46.5341 6.11866 45.0121L3.71546 46.8078C4.90005 48.3931 6.16985 49.9617 7.51944 51.5119L9.78211 49.542Z" fill="#0038FF" fill-opacity="0.12"/>
</svg>
