<svg width="11" height="18" viewBox="0 0 11 18" fill="none" xmlns="http://www.w3.org/2000/svg">
<path id="Vector" d="M0.906799 17.2898C0.685785 17.2902 0.473675 17.2057 0.31713 17.0549C0.160584 16.9041 0.0724274 16.6993 0.0720523 16.4857L0.0628311 11.2335C0.0634621 11.0929 0.102141 10.9549 0.175024 10.8333C0.247907 10.7116 0.352456 10.6105 0.478281 10.54L4.64092 8.24489L4.63292 3.68545C4.63355 3.54487 4.67223 3.40689 4.74511 3.28523C4.818 3.16357 4.92254 3.06246 5.04837 2.99195L9.41912 0.567601C9.61121 0.460441 9.83947 0.431429 10.0537 0.48695C10.2679 0.54247 10.4505 0.677974 10.5613 0.863652C10.6721 1.04933 10.7021 1.26997 10.6447 1.47704C10.5872 1.68411 10.447 1.86064 10.2549 1.9678L6.25874 4.14982L6.26674 8.70926C6.26674 8.852 6.2275 8.99218 6.15304 9.11546C6.07858 9.23873 5.97157 9.34067 5.84297 9.41084L1.73032 11.6978L1.73872 16.4828C1.73909 16.6964 1.65165 16.9015 1.49564 17.0528C1.33962 17.2042 1.12781 17.2894 0.906799 17.2898Z" fill="#48537D"/>
</svg>
