<svg width="21" height="20" viewBox="0 0 21 20" fill="none" xmlns="http://www.w3.org/2000/svg">
<path id="Vector" d="M19.942 10.3839L15.8253 8.10419V3.54475C15.8251 3.40201 15.7856 3.26189 15.7109 3.13875C15.6362 3.01561 15.5291 2.91386 15.4003 2.84391L10.867 0.330581C10.7403 0.259878 10.5966 0.222656 10.4503 0.222656C10.3041 0.222656 10.1603 0.259878 10.0337 0.330581L5.50033 2.84391C5.37161 2.91386 5.26443 3.01561 5.18975 3.13875C5.11507 3.26189 5.07559 3.40201 5.07533 3.54475V8.10419L0.958665 10.3839C0.831495 10.4549 0.725984 10.5571 0.652814 10.6802C0.579645 10.8032 0.541416 10.9428 0.541999 11.0847V16.1114C0.542877 16.252 0.581797 16.3899 0.654894 16.5114C0.72799 16.633 0.832717 16.7339 0.958665 16.8042L5.50033 19.3175C5.62702 19.3882 5.77072 19.4254 5.917 19.4254C6.06328 19.4254 6.20698 19.3882 6.33367 19.3175L10.4587 17.0378L14.5837 19.3175C14.7099 19.3899 14.8536 19.4288 15.0003 19.4303C15.1442 19.4274 15.2849 19.3886 15.4087 19.3175L19.9503 16.8042C20.0763 16.7339 20.181 16.633 20.2541 16.5114C20.3272 16.3899 20.3661 16.252 20.367 16.1114V11.0847C20.3667 10.942 20.3273 10.8019 20.2526 10.6788C20.1779 10.5556 20.0707 10.4539 19.942 10.3839ZM10.4503 1.9578L14.1587 4.01197V8.30558L10.442 10.3678L6.742 8.27336V4.01197L10.4503 1.9578ZM5.90867 17.6903L2.20867 15.6442V11.5278L6.10867 9.36891L9.77533 11.4392V15.5556L5.90867 17.6903ZM18.667 15.6442L14.967 17.6903L11.1087 15.5556V11.4714L14.8253 9.40114L18.667 11.5278V15.6442Z" fill="#48537D"/>
</svg>
