<svg width="20" height="22" viewBox="0 0 20 22" fill="none" xmlns="http://www.w3.org/2000/svg">
<g id="Group 237930">
<path id="Vector" fill-rule="evenodd" clip-rule="evenodd" d="M17.2182 12.6486C17.115 12.5378 16.9342 12.5607 16.8111 12.6983C15.3389 14.2982 13.855 15.1977 12.4035 15.3852C10.9902 15.5675 9.62133 15.0538 8.33563 13.8695C8.0494 13.6117 7.62025 13.0554 7.2583 12.3817C7.661 11.7735 7.9541 11.0747 8.12542 10.4144C8.37821 9.43922 8.32689 8.57567 8.07974 8.17384C7.94278 7.95134 7.75242 7.8274 7.52049 7.79353C7.22356 7.75066 6.80525 7.86859 6.29429 8.36961C5.58909 9.06376 5.35591 9.96466 5.46908 10.913C5.52906 11.4115 5.6919 11.923 5.90762 12.4076C5.58534 12.7083 5.19931 12.9056 4.74997 12.9032C3.7982 12.9053 3.15154 12.1131 2.72596 11.1419C2.35669 10.3019 1.93233 9.04675 2.16221 7.98329C2.24015 7.62192 2.40611 7.2998 2.1662 7.03986C1.79929 6.6372 1.38887 7.14618 1.28121 7.6426C1.05042 8.70894 1.28072 9.93417 1.5316 10.8638C1.99163 12.5747 3.00179 14.0439 4.52971 14.0845C5.24633 14.0999 5.8796 13.8141 6.41148 13.3582C6.823 14.0319 7.28227 14.5754 7.59147 14.8391C9.1239 16.1134 10.7332 16.6015 12.3547 16.3096C13.9745 16.0189 15.6112 14.9583 17.1821 13.1002C17.3045 12.961 17.3214 12.7594 17.2182 12.6486ZM6.71668 11.0437C6.64109 10.7592 6.59768 10.4762 6.60109 10.2018C6.60595 9.85286 6.6946 9.51945 6.96113 9.25877C7.00624 9.21519 7.06176 9.15522 7.10688 9.11165C7.12805 9.23016 7.16222 9.46414 7.14625 9.66284C7.10876 10.1066 6.97337 10.6452 6.74954 11.1583C6.73586 11.1191 6.72543 11.082 6.71668 11.0437Z" fill="#4D2C5E"/>
<path id="Vector_2" fill-rule="evenodd" clip-rule="evenodd" d="M17.2755 12.4302C17.1164 12.7719 16.9599 13.134 16.8413 13.4756C16.6582 14.0084 16.5585 14.4879 16.6442 14.8186C16.6655 14.986 16.8124 15.0744 16.9695 15.0149C17.1274 14.9571 17.2379 14.7729 17.2149 14.6067C17.2142 14.5225 17.2484 14.4311 17.2821 14.3289C17.3596 14.0881 17.5096 13.8287 17.6726 13.5489C17.881 13.1918 18.1258 12.8309 18.3367 12.4987C18.5284 12.1982 18.6905 11.9212 18.7971 11.7042C18.9653 11.3626 18.9959 11.0887 18.9776 10.9325C18.9722 10.8918 18.7125 10.3074 18.1578 10.6169C17.9594 10.7283 17.4651 11.0369 17.4406 11.0522C17.1419 11.258 16.5877 11.6318 16.0712 11.8538C15.908 11.9243 15.7507 11.9883 15.6104 12.0112C15.6042 11.9978 15.598 11.9845 15.5901 11.9723C15.477 11.7817 15.2272 11.7629 15.0289 11.9277C14.9199 12.0083 14.7689 12.2171 14.7231 12.337C14.6351 12.5697 14.6968 12.7415 14.873 12.8689C15.1131 13.0418 15.4802 13.0565 15.9017 12.9697C16.3449 12.8762 16.8575 12.6459 17.2755 12.4302ZM17.8278 11.3333C17.8646 11.2623 17.8794 11.2115 17.8383 11.2054C17.7922 11.1984 17.8161 11.2838 17.8278 11.3333Z" fill="#4D2C5E"/>
</g>
</svg>
