<svg width="18" height="14" viewBox="0 0 18 14" fill="none" xmlns="http://www.w3.org/2000/svg">
<path d="M8.78588 0.228219C9.35152 -0.273444 10.278 0.106157 10.278 0.839873V13.1601C10.278 13.8938 9.35223 14.2734 8.78588 13.7718L5.28641 10.6692C5.05663 10.4655 4.75356 10.3521 4.43866 10.352H2.30368C1.69271 10.352 1.10676 10.1224 0.674732 9.71361C0.242708 9.30484 0 8.75042 0 8.17234V5.83035C0 5.25226 0.242708 4.69785 0.674732 4.28908C1.10676 3.88031 1.69271 3.65066 2.30368 3.65066H4.43795C4.75338 3.65066 5.05675 3.53665 5.28641 3.33343L8.78588 0.228219ZM13.9241 1.08802C14.03 1.00003 14.1685 0.955409 14.3091 0.963961C14.4497 0.972513 14.581 1.03354 14.6741 1.13363C16.1835 2.75408 17.0149 4.84067 17.0118 7.00067C17.0118 9.24876 16.1286 11.3024 14.6741 12.867C14.6287 12.9189 14.5728 12.9616 14.5097 12.9927C14.4466 13.0237 14.3775 13.0425 14.3065 13.0478C14.2356 13.0531 14.1643 13.0449 14.0967 13.0237C14.0292 13.0025 13.9669 12.9686 13.9135 12.9241C13.86 12.8797 13.8166 12.8255 13.7857 12.7649C13.7547 12.7043 13.737 12.6384 13.7335 12.5711C13.73 12.5039 13.7408 12.4367 13.7653 12.3734C13.7898 12.3102 13.8274 12.2523 13.8759 12.2031C15.2146 10.7663 15.9518 8.916 15.9486 7.00067C15.9519 5.08532 15.2147 3.23494 13.8759 1.79826C13.8298 1.74865 13.7944 1.69091 13.7719 1.62836C13.7493 1.5658 13.74 1.49965 13.7445 1.43369C13.749 1.36773 13.7671 1.30325 13.798 1.24394C13.8288 1.18463 13.8717 1.13164 13.9241 1.08802ZM13.0091 3.17985C12.9245 3.07313 12.7985 3.00257 12.6589 2.9837C12.5194 2.96484 12.3776 2.99921 12.2648 3.07925C12.152 3.15929 12.0774 3.27845 12.0575 3.41052C12.0375 3.54258 12.0739 3.67673 12.1585 3.78345C12.8952 4.71102 13.2926 5.84038 13.2905 7.00067C13.2905 8.20788 12.8694 9.3212 12.1585 10.2179C12.1166 10.2707 12.0861 10.3309 12.0688 10.3949C12.0514 10.4588 12.0476 10.5254 12.0575 10.5908C12.0674 10.6562 12.0907 10.7191 12.1263 10.776C12.1619 10.8328 12.2089 10.8825 12.2648 10.9221C12.3206 10.9617 12.3842 10.9906 12.4518 11.007C12.5195 11.0234 12.5898 11.027 12.6589 11.0176C12.7281 11.0083 12.7945 10.9862 12.8546 10.9525C12.9147 10.9189 12.9672 10.8743 13.0091 10.8215C13.8839 9.71982 14.3558 8.37864 14.3537 7.00067C14.3559 5.6227 13.8839 4.2815 13.0091 3.17985Z" fill="white"/>
</svg>
