<svg width="31" height="13" viewBox="0 0 31 13" fill="none" xmlns="http://www.w3.org/2000/svg">
<path fill-rule="evenodd" clip-rule="evenodd" d="M27.3226 7.87661C27.1468 7.72492 26.8387 7.75638 26.6288 7.94468C24.1198 10.1346 21.5909 11.3658 19.1173 11.6225C16.7087 11.8721 14.3757 11.1689 12.1846 9.54783C11.6968 9.19491 10.9655 8.43345 10.3486 7.5113C11.0349 6.6788 11.5344 5.72228 11.8264 4.81847C12.2572 3.48365 12.1697 2.30161 11.7485 1.75158C11.5151 1.44703 11.1907 1.27739 10.7954 1.23102C10.2894 1.17234 9.5765 1.33376 8.70571 2.01956C7.50388 2.96971 7.10648 4.20286 7.29936 5.50098C7.40157 6.18331 7.6791 6.88341 8.04672 7.54674C7.49749 7.95842 6.8396 8.22843 6.07382 8.22513C4.45179 8.22807 3.34972 7.14368 2.62444 5.81431C1.99511 4.66446 1.27191 2.94643 1.66367 1.49077C1.7965 0.996124 2.07934 0.5552 1.67047 0.199402C1.04517 -0.351769 0.345727 0.344933 0.162241 1.02442C-0.231078 2.48403 0.161411 4.16113 0.588973 5.43358C1.37296 7.77548 3.09451 9.78659 5.69845 9.84217C6.91973 9.86316 7.99897 9.47192 8.90542 8.8479C9.60675 9.77009 10.3895 10.5141 10.9164 10.875C13.528 12.6193 16.2706 13.2873 19.034 12.8878C21.7946 12.4899 24.5839 11.0382 27.2612 8.49481C27.4697 8.30423 27.4985 8.02829 27.3226 7.87661ZM9.42556 5.67984C9.29673 5.29049 9.22275 4.90304 9.22856 4.52749C9.23684 4.04983 9.38792 3.59346 9.84215 3.23663C9.91903 3.17699 10.0137 3.0949 10.0905 3.03526C10.1266 3.19748 10.1849 3.51775 10.1576 3.78973C10.0937 4.39712 9.86301 5.1344 9.48155 5.83666C9.45825 5.783 9.44046 5.73225 9.42556 5.67984Z" fill="#4D2C5E"/>
<path fill-rule="evenodd" clip-rule="evenodd" d="M27.4172 7.57623C27.146 8.04398 26.8794 8.53961 26.6772 9.00718C26.3651 9.73652 26.1952 10.3929 26.3413 10.8455C26.3777 11.0747 26.6279 11.1956 26.8957 11.1142C27.1648 11.0351 27.3532 10.783 27.3139 10.5555C27.3127 10.4403 27.3709 10.3151 27.4283 10.1752C27.5605 9.84566 27.8162 9.49061 28.094 9.1075C28.449 8.61879 28.8663 8.1247 29.2256 7.67009C29.5524 7.25872 29.8287 6.87956 30.0103 6.58249C30.297 6.11495 30.3492 5.74005 30.3179 5.52626C30.3088 5.47052 29.8661 4.67053 28.9208 5.09427C28.5827 5.24674 27.7402 5.66908 27.6986 5.69006C27.1895 5.97179 26.2451 6.4835 25.3649 6.78729C25.0866 6.88384 24.8186 6.97146 24.5795 7.00274C24.5689 6.98444 24.5584 6.96614 24.5449 6.9495C24.3521 6.68863 23.9265 6.66284 23.5884 6.8885C23.4026 6.99883 23.1454 7.28464 23.0674 7.44867C22.9173 7.76717 23.0224 8.00241 23.3227 8.17683C23.7319 8.41347 24.3576 8.43353 25.076 8.31474C25.8312 8.18681 26.7049 7.87158 27.4172 7.57623ZM28.3584 6.07489C28.4212 5.97761 28.4464 5.90816 28.3763 5.89981C28.2978 5.8902 28.3384 6.00709 28.3584 6.07489Z" fill="#4D2C5E"/>
</svg>
