<svg width="21" height="19" viewBox="0 0 21 19" fill="none" xmlns="http://www.w3.org/2000/svg">
<mask id="path-1-inside-1_0_94" fill="white">
<path d="M20.2937 7.72853L11.0856 0.362017C10.7862 0.122537 10.392 -0.00706633 9.98536 0.000297455C9.57869 0.00766124 9.19103 0.151422 8.90341 0.40153L0.434608 7.76574L0 8.14362V19H8.16078V12.2262H12.6121V19H20.7729V8.11189L20.2937 7.72853ZM10.0173 1.29026C10.0303 1.29026 10.0223 1.29272 10.0167 1.29752C10.0109 1.29272 10.0042 1.29026 10.0173 1.29026ZM19.2891 17.7098H14.0959V12.2262C14.0959 11.884 13.9396 11.5559 13.6613 11.3139C13.383 11.0719 13.0056 10.936 12.6121 10.936H8.16078C7.76725 10.936 7.38985 11.0719 7.11159 11.3139C6.83332 11.5559 6.677 11.884 6.677 12.2262V17.7098H1.48378V8.67807L10.0173 1.31385L10.0184 1.31244L19.2891 8.67807V17.7098Z"/>
</mask>
<path d="M20.2937 7.72853L11.0856 0.362017C10.7862 0.122537 10.392 -0.00706633 9.98536 0.000297455C9.57869 0.00766124 9.19103 0.151422 8.90341 0.40153L0.434608 7.76574L0 8.14362V19H8.16078V12.2262H12.6121V19H20.7729V8.11189L20.2937 7.72853ZM10.0173 1.29026C10.0303 1.29026 10.0223 1.29272 10.0167 1.29752C10.0109 1.29272 10.0042 1.29026 10.0173 1.29026ZM19.2891 17.7098H14.0959V12.2262C14.0959 11.884 13.9396 11.5559 13.6613 11.3139C13.383 11.0719 13.0056 10.936 12.6121 10.936H8.16078C7.76725 10.936 7.38985 11.0719 7.11159 11.3139C6.83332 11.5559 6.677 11.884 6.677 12.2262V17.7098H1.48378V8.67807L10.0173 1.31385L10.0184 1.31244L19.2891 8.67807V17.7098Z" fill="#FEB656"/>
<path d="M20.2937 7.72853L21.9058 5.71357L21.9057 5.71351L20.2937 7.72853ZM11.0856 0.362017L9.47355 2.37702L9.47356 2.37703L11.0856 0.362017ZM8.90341 0.40153L10.5967 2.34877L10.5967 2.34876L8.90341 0.40153ZM0.434608 7.76574L2.12776 9.71308L2.12787 9.71299L0.434608 7.76574ZM0 8.14362L-1.69315 6.19629L-2.58048 6.96779V8.14362H0ZM0 19H-2.58048V21.5805H0V19ZM8.16078 19V21.5805H10.7413V19H8.16078ZM8.16078 12.2262V9.64575H5.58029V12.2262H8.16078ZM12.6121 12.2262H15.1926V9.64575H12.6121V12.2262ZM12.6121 19H10.0316V21.5805H12.6121V19ZM20.7729 19V21.5805H23.3534V19H20.7729ZM20.7729 8.11189H23.3534V6.8717L22.385 6.09693L20.7729 8.11189ZM10.0167 1.29752L8.37114 3.28528L10.0437 4.66984L11.6938 3.25866L10.0167 1.29752ZM19.2891 17.7098V20.2902H21.8696V17.7098H19.2891ZM14.0959 17.7098H11.5154V20.2902H14.0959V17.7098ZM6.677 17.7098V20.2902H9.25748V17.7098H6.677ZM1.48378 17.7098H-1.09671V20.2902H1.48378V17.7098ZM1.48378 8.67807L-0.202141 6.72446L-1.09671 7.49645V8.67807H1.48378ZM10.0173 1.31385L11.7032 3.26746L11.8906 3.10574L12.0438 2.91134L10.0173 1.31385ZM10.0184 1.31244L11.6236 -0.707984L9.59544 -2.31937L7.99182 -0.28505L10.0184 1.31244ZM19.2891 8.67807H21.8696V7.43248L20.8943 6.65764L19.2891 8.67807ZM21.9057 5.71351L12.6976 -1.653L9.47356 2.37703L18.6817 9.74355L21.9057 5.71351ZM12.6976 -1.65299C11.8981 -2.29259 10.9076 -2.59731 9.93864 -2.57976L10.0321 2.58036C9.8765 2.58317 9.67435 2.53767 9.47355 2.37702L12.6976 -1.65299ZM9.93864 -2.57976C8.96975 -2.56222 7.98732 -2.22153 7.21013 -1.5457L10.5967 2.34876C10.3947 2.52437 10.1876 2.57754 10.0321 2.58036L9.93864 -2.57976ZM7.21014 -1.54571L-1.25866 5.8185L2.12787 9.71299L10.5967 2.34877L7.21014 -1.54571ZM-1.25855 5.81841L-1.69315 6.19629L1.69315 10.091L2.12776 9.71308L-1.25855 5.81841ZM-2.58048 8.14362V19H2.58048V8.14362H-2.58048ZM0 21.5805H8.16078V16.4195H0V21.5805ZM10.7413 19V12.2262H5.58029V19H10.7413ZM8.16078 14.8067H12.6121V9.64575H8.16078V14.8067ZM10.0316 12.2262V19H15.1926V12.2262H10.0316ZM12.6121 21.5805H20.7729V16.4195H12.6121V21.5805ZM23.3534 19V8.11189H18.1924V19H23.3534ZM22.385 6.09693L21.9058 5.71357L18.6816 9.74349L19.1608 10.1269L22.385 6.09693ZM10.0173 3.87075C9.98629 3.87075 9.91664 3.87028 9.82788 3.86361C9.77298 3.85948 9.54446 3.84307 9.26574 3.75745C9.12519 3.71428 8.8434 3.61574 8.53799 3.40061C8.21599 3.17379 7.75888 2.73545 7.54831 2.0182C7.12982 0.59274 8.05617 -0.378463 8.09871 -0.426127C8.29023 -0.640725 8.47685 -0.773226 8.49847 -0.78905C8.54634 -0.824098 8.59176 -0.854263 8.57718 -0.844424C8.57701 -0.844306 8.57469 -0.842737 8.57186 -0.840819C8.56885 -0.838781 8.56436 -0.835722 8.55892 -0.831991C8.54822 -0.824641 8.53189 -0.813309 8.51221 -0.799161C8.47463 -0.772135 8.41238 -0.725933 8.33951 -0.663615L11.6938 3.25866C11.6223 3.31978 11.5616 3.36485 11.5254 3.39083C11.5065 3.40445 11.4909 3.41527 11.4809 3.42213C11.4758 3.42562 11.4717 3.42844 11.469 3.43024C11.4677 3.43115 11.4666 3.43189 11.4659 3.43237C11.4655 3.43261 11.4652 3.4328 11.4651 3.43293C11.4649 3.43305 11.4647 3.43314 11.4647 3.43315C11.4515 3.44209 11.4981 3.41109 11.5471 3.37528C11.5697 3.3587 11.7572 3.22552 11.9492 3.01032C11.9923 2.96204 12.9189 1.99031 12.5003 0.564388C12.2896 -0.153087 11.8324 -0.591633 11.5101 -0.818647C11.2044 -1.03397 10.9222 -1.13268 10.7812 -1.176C10.5015 -1.26192 10.2715 -1.27857 10.2146 -1.28285C10.1238 -1.28967 10.0515 -1.29022 10.0173 -1.29022V3.87075ZM11.6622 -0.690233C11.5829 -0.755889 11.4816 -0.828178 11.5367 -0.787818C11.5408 -0.784822 11.6065 -0.737445 11.6839 -0.671545C11.7219 -0.639179 11.9778 -0.428166 12.1981 -0.0755255C12.4301 0.295626 12.9654 1.45338 12.1868 2.67678C11.6314 3.54949 10.7791 3.75596 10.6887 3.78058C10.4523 3.84493 10.2611 3.85967 10.1997 3.86412C10.1158 3.8702 10.0496 3.87075 10.0173 3.87075V-1.29022C9.9817 -1.29022 9.91283 -1.28959 9.82676 -1.28336C9.76326 -1.27875 9.57046 -1.26379 9.33298 -1.19914C9.24142 -1.17421 8.38849 -0.967355 7.83279 -0.0941859C7.05391 1.12967 7.58927 2.28795 7.82162 2.65971C8.04239 3.01296 8.29894 3.22466 8.33783 3.25778C8.41611 3.32444 8.48286 3.37265 8.48819 3.37655C8.5458 3.41872 8.44755 3.34853 8.37114 3.28528L11.6622 -0.690233ZM19.2891 15.1293H14.0959V20.2902H19.2891V15.1293ZM16.6764 17.7098V12.2262H11.5154V17.7098H16.6764ZM16.6764 12.2262C16.6764 11.074 16.147 10.0557 15.3546 9.36664L11.968 13.2611C11.7322 13.056 11.5154 12.6941 11.5154 12.2262H16.6764ZM15.3546 9.36664C14.5736 8.68752 13.5826 8.35551 12.6121 8.35551V13.5165C12.4287 13.5165 12.1925 13.4563 11.968 13.2611L15.3546 9.36664ZM12.6121 8.35551H8.16078V13.5165H12.6121V8.35551ZM8.16078 8.35551C7.1903 8.35551 6.19933 8.68752 5.41833 9.36664L8.80485 13.2611C8.58037 13.4563 8.3442 13.5165 8.16078 13.5165V8.35551ZM5.41833 9.36664C4.62592 10.0557 4.09652 11.074 4.09652 12.2262H9.25748C9.25748 12.6941 9.04073 13.056 8.80485 13.2611L5.41833 9.36664ZM4.09652 12.2262V17.7098H9.25748V12.2262H4.09652ZM6.677 15.1293H1.48378V20.2902H6.677V15.1293ZM4.06426 17.7098V8.67807H-1.09671V17.7098H4.06426ZM3.1697 10.6317L11.7032 3.26746L8.33134 -0.639752L-0.202141 6.72446L3.1697 10.6317ZM12.0438 2.91134L12.0449 2.90993L7.99182 -0.28505L7.99071 -0.283639L12.0438 2.91134ZM8.41314 3.33287L17.6839 10.6985L20.8943 6.65764L11.6236 -0.707984L8.41314 3.33287ZM16.7086 8.67807V17.7098H21.8696V8.67807H16.7086Z" fill="#FEB656" mask="url(#path-1-inside-1_0_94)"/>
</svg>
