<svg width="21" height="19" viewBox="0 0 21 19" fill="none" xmlns="http://www.w3.org/2000/svg">
<path d="M10.2752 0.15303C9.62645 0.15303 9.10049 0.678986 9.10049 1.32779V17.6722C9.10049 18.321 9.62645 18.847 10.2752 18.847H10.469C11.1178 18.847 11.6438 18.321 11.6438 17.6722V1.32779C11.6438 0.678986 11.1178 0.15303 10.469 0.15303H10.2752Z" fill="#6F6C90" stroke="#6F6C90" stroke-width="0.3" stroke-linecap="round"/>
<path d="M1.32797 8.32524C0.679173 8.32524 0.153217 8.8512 0.153217 9.5C0.153217 10.1488 0.679173 10.6748 1.32797 10.6748H19.4163C20.0651 10.6748 20.5911 10.1488 20.5911 9.5C20.5911 8.8512 20.0651 8.32524 19.4163 8.32524H1.32797Z" fill="#6F6C90" stroke="#6F6C90" stroke-width="0.3" stroke-linecap="round"/>
</svg>
