<svg width="25" height="24" viewBox="0 0 25 24" fill="none" xmlns="http://www.w3.org/2000/svg">
<path d="M4.75147 1.875C4.1875 1.875 3.64662 2.09888 3.24783 2.4974C2.84904 2.89591 2.625 3.43641 2.625 4C2.625 4.56359 2.84904 5.10409 3.24783 5.5026C3.64662 5.90112 4.1875 6.125 4.75147 6.125C5.31545 6.125 5.85633 5.90112 6.25512 5.5026C6.65391 5.10409 6.87795 4.56359 6.87795 4C6.87795 3.43641 6.65391 2.89591 6.25512 2.4974C5.85633 2.09888 5.31545 1.875 4.75147 1.875ZM2.75009 7.875C2.71691 7.875 2.6851 7.88817 2.66164 7.91161C2.63818 7.93505 2.625 7.96685 2.625 8V21C2.625 21.069 2.68104 21.125 2.75009 21.125H6.75286C6.78604 21.125 6.81785 21.1118 6.84131 21.0884C6.86477 21.0649 6.87795 21.0332 6.87795 21V8C6.87795 7.96685 6.86477 7.93505 6.84131 7.91161C6.81785 7.88817 6.78604 7.875 6.75286 7.875H2.75009ZM9.2546 7.875C9.22142 7.875 9.18961 7.88817 9.16615 7.91161C9.14269 7.93505 9.12951 7.96685 9.12951 8V21C9.12951 21.069 9.18555 21.125 9.2546 21.125H13.2574C13.2905 21.125 13.3224 21.1118 13.3458 21.0884C13.3693 21.0649 13.3825 21.0332 13.3825 21V14C13.3825 13.5027 13.5801 13.0258 13.932 12.6742C14.2839 12.3225 14.7611 12.125 15.2588 12.125C15.7564 12.125 16.2336 12.3225 16.5855 12.6742C16.9374 13.0258 17.1351 13.5027 17.1351 14V21C17.1351 21.069 17.1911 21.125 17.2601 21.125H21.2629C21.2961 21.125 21.3279 21.1118 21.3514 21.0884C21.3748 21.0649 21.388 21.0332 21.388 21V12.38C21.388 9.953 19.2765 8.055 16.8599 8.274C16.1121 8.34202 15.3797 8.52694 14.6894 8.822L13.3825 9.382V8C13.3825 7.96685 13.3693 7.93505 13.3458 7.91161C13.3224 7.88817 13.2905 7.875 13.2574 7.875H9.2546Z" fill="#F8F8F8"/>
</svg>
