<svg width="21" height="22" viewBox="0 0 21 22" fill="none" xmlns="http://www.w3.org/2000/svg">
<path d="M3.15385 12.0002L3.26763 3.20095C3.27517 2.61753 3.49889 2.0608 3.88957 1.65324C4.28025 1.24568 4.80588 1.02067 5.35084 1.02772L17.6795 1.18713C18.2244 1.19418 18.7441 1.4327 19.1241 1.85023C19.5041 2.26775 19.7134 2.83008 19.7058 3.41351L19.5209 17.7122C19.5067 18.8121 18.8618 21.004 16.3961 20.9721M16.3961 20.9721L4.06746 20.8127C3.04007 20.7994 0.993831 20.1129 1.02796 17.4731L1.05641 15.2733L13.385 15.4327L13.3566 17.6325C13.3225 20.2723 15.3687 20.9588 16.3961 20.9721Z" stroke="#275473" stroke-width="2" stroke-linecap="round" stroke-linejoin="round"/>
</svg>
