<svg width="31" height="13" viewBox="0 0 31 13" fill="none" xmlns="http://www.w3.org/2000/svg">
<path fill-rule="evenodd" clip-rule="evenodd" d="M3.00326 7.87661C3.17912 7.72492 3.48724 7.75638 3.69713 7.94468C6.20612 10.1346 8.73503 11.3658 11.2086 11.6225C13.6172 11.8721 15.9502 11.1689 18.1413 9.54783C18.6291 9.19491 19.3605 8.43345 19.9773 7.5113C19.291 6.6788 18.7915 5.72228 18.4995 4.81847C18.0687 3.48365 18.1562 2.30161 18.5774 1.75158C18.8108 1.44703 19.1352 1.27739 19.5305 1.23102C20.0365 1.17234 20.7494 1.33376 21.6202 2.01956C22.822 2.96971 23.2194 4.20286 23.0265 5.50098C22.9243 6.18331 22.6468 6.88341 22.2792 7.54674C22.8284 7.95842 23.4863 8.22843 24.2521 8.22513C25.8741 8.22807 26.9762 7.14368 27.7015 5.81431C28.3308 4.66446 29.054 2.94643 28.6622 1.49077C28.5294 0.996124 28.2466 0.5552 28.6554 0.199402C29.2807 -0.351769 29.9802 0.344933 30.1637 1.02442C30.557 2.48403 30.1645 4.16113 29.7369 5.43358C28.9529 7.77548 27.2314 9.78659 24.6275 9.84217C23.4062 9.86316 22.3269 9.47192 21.4205 8.8479C20.7192 9.77009 19.9364 10.5141 19.4095 10.875C16.7979 12.6193 14.0553 13.2873 11.2919 12.8878C8.53132 12.4899 5.74202 11.0382 3.06474 8.49481C2.85618 8.30423 2.8274 8.02829 3.00326 7.87661ZM20.9003 5.67984C21.0292 5.29049 21.1032 4.90304 21.0973 4.52749C21.0891 4.04983 20.938 3.59346 20.4838 3.23663C20.4069 3.17699 20.3122 3.0949 20.2354 3.03526C20.1993 3.19748 20.141 3.51775 20.1683 3.78973C20.2322 4.39712 20.4629 5.1344 20.8444 5.83666C20.8677 5.783 20.8854 5.73225 20.9003 5.67984Z" fill="#4D2C5E"/>
<path fill-rule="evenodd" clip-rule="evenodd" d="M2.9087 7.57623C3.17988 8.04398 3.4465 8.53961 3.64869 9.00718C3.96078 9.73652 4.13071 10.3929 3.98458 10.8455C3.94823 11.0747 3.69798 11.1956 3.4302 11.1142C3.1611 11.0351 2.97273 10.783 3.01196 10.5555C3.01322 10.4403 2.95496 10.3151 2.89756 10.1752C2.76537 9.84566 2.50973 9.49061 2.2319 9.1075C1.87686 8.61879 1.45965 8.1247 1.10027 7.67009C0.7735 7.25872 0.497236 6.87956 0.315598 6.58249C0.0289345 6.11495 -0.0233087 5.74005 0.00799553 5.52626C0.0171429 5.47052 0.459825 4.67053 1.40514 5.09427C1.74319 5.24674 2.58567 5.66908 2.6273 5.69006C3.1364 5.97179 4.08083 6.4835 4.96105 6.78729C5.23926 6.88384 5.50727 6.97146 5.7464 7.00274C5.75697 6.98444 5.76754 6.96614 5.78098 6.9495C5.97382 6.68863 6.39944 6.66284 6.73746 6.8885C6.92327 6.99883 7.18051 7.28464 7.25854 7.44867C7.40861 7.76717 7.3035 8.00241 7.00319 8.17683C6.59403 8.41347 5.96826 8.43353 5.24994 8.31474C4.49466 8.18681 3.62105 7.87158 2.9087 7.57623ZM1.96752 6.07489C1.90469 5.97761 1.87953 5.90816 1.94961 5.89981C2.02809 5.8902 1.98747 6.00709 1.96752 6.07489Z" fill="#4D2C5E"/>
</svg>
