<svg width="670" height="336" viewBox="0 0 670 336" fill="none" xmlns="http://www.w3.org/2000/svg">
<path fill-rule="evenodd" clip-rule="evenodd" d="M0.100427 286.968C0.0548948 286.988 0.0104448 286.998 0.010581 286.965C0.0117967 286.923 0.0444078 286.933 0.100427 286.968Z" fill="#4D2C5E"/>
<g filter="url(#filter0_d_0_313)">
<rect x="76.7103" width="593.29" height="335.295" rx="14" fill="white"/>
<rect x="77.2103" y="0.5" width="592.29" height="334.295" rx="13.5" stroke="#F5C069"/>
</g>
<path fill-rule="evenodd" clip-rule="evenodd" d="M610.065 231.934C610.24 231.783 610.547 231.814 610.756 232.002C613.255 234.182 615.773 235.408 618.236 235.664C620.634 235.912 622.957 235.212 625.139 233.598C625.625 233.247 626.353 232.488 626.967 231.57C626.284 230.741 625.786 229.789 625.496 228.889C625.067 227.56 625.154 226.383 625.573 225.835C625.806 225.532 626.129 225.363 626.522 225.317C627.026 225.258 627.736 225.419 628.603 226.102C629.8 227.048 630.196 228.276 630.004 229.568C629.902 230.248 629.625 230.945 629.259 231.605C629.806 232.015 630.461 232.284 631.224 232.281C632.839 232.284 633.936 231.204 634.659 229.88C635.285 228.735 636.005 227.025 635.615 225.575C635.483 225.083 635.201 224.644 635.609 224.289C636.231 223.74 636.928 224.434 637.11 225.111C637.502 226.564 637.111 228.234 636.685 229.501C635.905 231.833 634.191 233.836 631.598 233.891C630.382 233.912 629.307 233.522 628.404 232.901C627.706 233.819 626.927 234.56 626.402 234.919C623.801 236.656 621.07 237.322 618.319 236.924C615.57 236.528 612.792 235.082 610.126 232.549C609.919 232.36 609.89 232.085 610.065 231.934ZM627.886 229.746C628.015 229.359 628.088 228.973 628.083 228.599C628.074 228.123 627.924 227.669 627.472 227.314C627.395 227.254 627.301 227.172 627.224 227.113C627.188 227.275 627.13 227.594 627.157 227.864C627.221 228.469 627.451 229.203 627.831 229.903C627.854 229.849 627.872 229.799 627.886 229.746Z" fill="#4D2C5E"/>
<path fill-rule="evenodd" clip-rule="evenodd" d="M609.971 231.635C610.241 232.101 610.507 232.594 610.708 233.06C611.019 233.786 611.188 234.44 611.042 234.89C611.006 235.118 610.757 235.239 610.49 235.158C610.222 235.079 610.035 234.828 610.074 234.601C610.075 234.487 610.017 234.362 609.96 234.223C609.828 233.895 609.574 233.541 609.297 233.16C608.944 232.673 608.528 232.181 608.17 231.728C607.845 231.319 607.57 230.941 607.389 230.645C607.104 230.18 607.052 229.806 607.083 229.594C607.092 229.538 607.533 228.741 608.474 229.163C608.811 229.315 609.649 229.736 609.691 229.757C610.198 230.037 611.138 230.547 612.015 230.849C612.292 230.945 612.559 231.033 612.797 231.064C612.807 231.045 612.818 231.027 612.831 231.011C613.023 230.751 613.447 230.725 613.784 230.95C613.969 231.06 614.225 231.344 614.302 231.508C614.452 231.825 614.347 232.059 614.048 232.233C613.641 232.468 613.018 232.488 612.302 232.37C611.55 232.243 610.68 231.929 609.971 231.635ZM609.034 230.14C608.971 230.043 608.946 229.974 609.016 229.965C609.094 229.956 609.054 230.072 609.034 230.14Z" fill="#4D2C5E"/>
<defs>
<filter id="filter0_d_0_313" x="72.707" y="0" width="601.296" height="343.302" filterUnits="userSpaceOnUse" color-interpolation-filters="sRGB">
<feFlood flood-opacity="0" result="BackgroundImageFix"/>
<feColorMatrix in="SourceAlpha" type="matrix" values="0 0 0 0 0 0 0 0 0 0 0 0 0 0 0 0 0 0 127 0" result="hardAlpha"/>
<feOffset dy="4"/>
<feGaussianBlur stdDeviation="2"/>
<feComposite in2="hardAlpha" operator="out"/>
<feColorMatrix type="matrix" values="0 0 0 0 0 0 0 0 0 0 0 0 0 0 0 0 0 0 0.25 0"/>
<feBlend mode="normal" in2="BackgroundImageFix" result="effect1_dropShadow_0_313"/>
<feBlend mode="normal" in="SourceGraphic" in2="effect1_dropShadow_0_313" result="shape"/>
</filter>
</defs>
</svg>
