<svg width="1038" height="790" viewBox="0 0 1038 790" fill="none" xmlns="http://www.w3.org/2000/svg">
<mask id="mask0_0_112" style="mask-type:alpha" maskUnits="userSpaceOnUse" x="0" y="-628" width="1440" height="1418">
<path d="M0 -627.785H1440V769.215C1440 780.261 1431.05 789.215 1420 789.215H20C8.95432 789.215 0 780.261 0 769.215V-627.785Z" fill="#275473"/>
</mask>
<g mask="url(#mask0_0_112)">
<path d="M259 645.215C259 750.702 173.486 836.215 68 836.215C-37.4864 836.215 -123 750.701 -123 645.215L-123 332.215L259 332.215L259 645.215Z" fill="#113349"/>
<path d="M1038 632.627C1038 732.867 956.74 814.127 856.5 814.127C756.26 814.127 675 732.867 675 632.627V0H1038V632.627Z" fill="#113349"/>
</g>
</svg>
