<svg width="21" height="18" viewBox="0 0 21 18" fill="none" xmlns="http://www.w3.org/2000/svg">
<path d="M14.2382 17.8631C14.1021 17.8631 13.9745 17.8421 13.8554 17.8001C13.7363 17.7581 13.6258 17.6859 13.5237 17.5836L10.6148 14.6869C10.4277 14.5006 10.3341 14.2634 10.3341 13.9754C10.3341 13.6874 10.4277 13.4503 10.6148 13.2639C10.8019 13.0776 11.0401 12.9844 11.3293 12.9844C11.6185 12.9844 11.8566 13.0776 12.0437 13.2639L14.2382 15.4492L19.2904 10.418C19.4775 10.2317 19.7157 10.1385 20.0049 10.1385C20.294 10.1385 20.5322 10.2317 20.7193 10.418C20.9064 10.6044 21 10.8415 21 11.1295C21 11.4175 20.9064 11.6547 20.7193 11.841L14.9526 17.5836C14.8505 17.6853 14.74 17.7574 14.6209 17.8001C14.5018 17.8428 14.3742 17.8638 14.2382 17.8631ZM2.04131 2.03279L10.2066 7.11476L18.3718 2.03279H2.04131ZM2.04131 16.2623C1.47995 16.2623 0.999224 16.0631 0.599127 15.6647C0.19903 15.2662 -0.000678704 14.7879 1.73286e-06 14.2295V2.03279C1.73286e-06 1.47377 0.20005 0.995051 0.600148 0.596625C1.00024 0.198198 1.48063 -0.00067587 2.04131 1.72563e-06H18.3718C18.9332 1.72563e-06 19.4139 0.199215 19.814 0.597641C20.2141 0.996067 20.4138 1.47445 20.4131 2.03279V6.4541L19.3925 7.4705L18.3718 8.48689V4.06558L10.7424 8.81722C10.6574 8.86804 10.5679 8.90632 10.474 8.93207C10.3801 8.95782 10.2909 8.97036 10.2066 8.96968C10.1215 8.96968 10.032 8.95714 9.93813 8.93207C9.84423 8.907 9.75509 8.86872 9.67072 8.81722L2.04131 4.06558V14.2295H7.29769L9.339 16.2623H2.04131Z" fill="white"/>
</svg>
