<svg width="26" height="24" viewBox="0 0 26 24" fill="none" xmlns="http://www.w3.org/2000/svg">
<rect width="26" height="24" rx="8" fill="#23BDEE"/>
<g clip-path="url(#clip0_0_169)">
<path d="M9.42499 5.40002C9.14292 5.40002 8.91426 5.61109 8.91426 5.87146V6.81431H9.93568V5.87146C9.93568 5.61109 9.70703 5.40002 9.42499 5.40002Z" fill="white"/>
<path d="M16.575 5.40002C16.2929 5.40002 16.0642 5.61109 16.0642 5.87146V6.81431H17.0857V5.87146C17.0857 5.61109 16.857 5.40002 16.575 5.40002Z" fill="white"/>
<path d="M18.6178 6.81433H17.0857V8.70005C17.0857 8.96043 16.857 9.17149 16.575 9.17149C16.2929 9.17149 16.0642 8.96043 16.0642 8.70005V6.81433H9.93568V8.70005C9.93568 8.96043 9.70702 9.17149 9.42495 9.17149C9.14288 9.17149 8.91423 8.96043 8.91423 8.70005V6.81433H7.38212C6.53594 6.81433 5.84998 7.44753 5.84998 8.22862V17.1858C5.84998 17.9669 6.53594 18.6001 7.38212 18.6001H18.6178C19.464 18.6001 20.15 17.9669 20.15 17.1858V8.22862C20.15 7.44753 19.464 6.81433 18.6178 6.81433ZM19.1285 17.1858C19.1285 17.4461 18.8999 17.6572 18.6178 17.6572H7.38212C7.10005 17.6572 6.87139 17.4461 6.87139 17.1858V11.0572H19.1285V17.1858Z" fill="white"/>
<path d="M9.93568 12H8.91426C8.63219 12 8.40353 12.2111 8.40353 12.4714C8.40353 12.7318 8.63219 12.9429 8.91426 12.9429H9.93568C10.2177 12.9429 10.4464 12.7318 10.4464 12.4714C10.4464 12.2111 10.2177 12 9.93568 12Z" fill="white"/>
<path d="M13.5107 12H12.4893C12.2072 12 11.9785 12.2111 11.9785 12.4714C11.9785 12.7318 12.2072 12.9429 12.4893 12.9429H13.5107C13.7928 12.9429 14.0214 12.7318 14.0214 12.4714C14.0214 12.2111 13.7928 12 13.5107 12Z" fill="white"/>
<path d="M17.0857 12H16.0643C15.7822 12 15.5536 12.2111 15.5536 12.4714C15.5536 12.7318 15.7822 12.9429 16.0643 12.9429H17.0857C17.3678 12.9429 17.5964 12.7318 17.5964 12.4714C17.5964 12.2111 17.3677 12 17.0857 12Z" fill="white"/>
<path d="M9.93568 13.8857H8.91426C8.63219 13.8857 8.40353 14.0968 8.40353 14.3572C8.40353 14.6176 8.63219 14.8286 8.91426 14.8286H9.93568C10.2177 14.8286 10.4464 14.6176 10.4464 14.3572C10.4464 14.0968 10.2177 13.8857 9.93568 13.8857Z" fill="white"/>
<path d="M13.5107 13.8857H12.4893C12.2072 13.8857 11.9785 14.0968 11.9785 14.3572C11.9785 14.6176 12.2072 14.8286 12.4893 14.8286H13.5107C13.7928 14.8286 14.0214 14.6176 14.0214 14.3572C14.0214 14.0968 13.7928 13.8857 13.5107 13.8857Z" fill="white"/>
<path d="M17.0857 13.8857H16.0643C15.7822 13.8857 15.5536 14.0968 15.5536 14.3572C15.5536 14.6176 15.7822 14.8286 16.0643 14.8286H17.0857C17.3678 14.8286 17.5964 14.6176 17.5964 14.3572C17.5964 14.0968 17.3677 13.8857 17.0857 13.8857Z" fill="white"/>
<path d="M9.93568 15.7715H8.91426C8.63219 15.7715 8.40353 15.9825 8.40353 16.2429C8.40353 16.5033 8.63219 16.7143 8.91426 16.7143H9.93568C10.2177 16.7143 10.4464 16.5033 10.4464 16.2429C10.4464 15.9825 10.2177 15.7715 9.93568 15.7715Z" fill="white"/>
<path d="M13.5107 15.7715H12.4893C12.2072 15.7715 11.9785 15.9825 11.9785 16.2429C11.9785 16.5033 12.2072 16.7144 12.4893 16.7144H13.5107C13.7928 16.7144 14.0214 16.5033 14.0214 16.2429C14.0214 15.9825 13.7928 15.7715 13.5107 15.7715Z" fill="white"/>
<path d="M17.0857 15.7715H16.0643C15.7822 15.7715 15.5536 15.9825 15.5536 16.2429C15.5536 16.5033 15.7822 16.7144 16.0643 16.7144H17.0857C17.3678 16.7144 17.5964 16.5033 17.5964 16.2429C17.5964 15.9825 17.3677 15.7715 17.0857 15.7715Z" fill="white"/>
</g>
<defs>
<clipPath id="clip0_0_169">
<rect width="14.3" height="13.2" fill="white" transform="translate(5.84998 5.40002)"/>
</clipPath>
</defs>
</svg>
