<svg width="20" height="20" viewBox="0 0 20 20" fill="none" xmlns="http://www.w3.org/2000/svg">
<path d="M3.27576 0.541589L3.27572 0.541616L1.85308 1.36291C1.85308 1.36291 1.85307 1.36291 1.85307 1.36291C1.37591 1.63846 0.973718 2.01816 0.67847 2.47C0.383279 2.92176 0.204652 3.432 0.157083 3.9575L0.157083 3.9575C-0.133486 7.16595 1.55404 10.5819 5.20702 14.2138C8.85743 17.8423 12.3536 19.5837 15.7098 19.4225C15.7098 19.4225 15.7098 19.4225 15.7098 19.4225L15.7158 19.5474C16.2894 19.5197 16.8507 19.3595 17.3516 19.0804C17.8525 18.8013 18.2783 18.4116 18.5926 17.9446L3.27576 0.541589ZM3.27576 0.541589C3.89825 0.181868 4.63104 0.0488249 5.33684 0.167133C6.04254 0.285423 6.67183 0.646626 7.10833 1.18152L7.2052 1.10247L3.27576 0.541589ZM1.45003 4.03366L1.32551 4.02237C1.35711 3.67378 1.47556 3.33637 1.67025 3.03851C1.86491 2.74069 2.1301 2.4911 2.4431 2.3104L2.44353 2.31086L3.86498 1.49025C3.865 1.49024 3.86502 1.49023 3.86504 1.49022C4.23878 1.27418 4.67866 1.19417 5.10305 1.26529C5.52756 1.33643 5.90874 1.5542 6.17433 1.87972C6.17433 1.87973 6.17434 1.87974 6.17435 1.87975L7.63081 3.66392L7.63081 3.66392C7.85935 3.9439 7.98933 4.28784 8.00207 4.64727C8.0148 5.00662 7.90969 5.36228 7.70273 5.6645C7.70273 5.66451 7.70272 5.66452 7.70271 5.66453L6.40546 7.56001L1.45003 4.03366ZM1.45003 4.03366L1.32551 4.02237C1.06554 6.89017 2.64419 10.0317 6.06542 13.4328C9.48523 16.8327 12.6956 18.4534 15.6816 18.3094C16.0452 18.2919 16.4009 18.1903 16.7184 18.0134C17.0359 17.8364 17.3062 17.5891 17.5059 17.292L1.45003 4.03366ZM16.2805 12.2621L18.0809 13.7149C18.4092 13.9799 18.6242 14.3531 18.6846 14.7654C18.745 15.1777 18.6465 15.5991 18.4093 15.9514L18.4093 15.9514L17.506 17.2919L16.2805 12.2621ZM16.2805 12.2621C15.9979 12.0339 15.6468 11.8985 15.2769 11.8738C14.907 11.849 14.5359 11.936 14.2154 12.1226L14.2153 12.1226L12.1832 13.3074M16.2805 12.2621L12.1832 13.3074M12.1832 13.3074C12.1831 13.3075 12.183 13.3076 12.1829 13.3077C11.6621 13.6059 11.0783 13.6043 10.4002 13.3092C9.71693 13.0119 8.94793 12.4202 8.07774 11.5547L8.07768 11.5546C7.34112 10.8229 6.81192 10.1748 6.49538 9.59299C6.17932 9.01203 6.08071 8.5075 6.1869 8.05465M12.1832 13.3074L6.1869 8.05465M6.1869 8.05465C6.22802 7.8794 6.3019 7.71198 6.40533 7.5602L6.1869 8.05465Z" fill="#275473" stroke="#275473" stroke-width="0.25"/>
</svg>
