<svg width="88" height="42" viewBox="0 0 88 42" fill="none" xmlns="http://www.w3.org/2000/svg">
<path fill-rule="evenodd" clip-rule="evenodd" d="M4.52022 24.7253C5.05182 24.2347 5.99528 24.3517 6.64473 24.9798C14.4057 32.2872 22.1886 36.4453 29.7628 37.3982C37.1379 38.3251 44.2432 36.1177 50.8774 30.8879C52.3547 29.7497 54.5602 27.2799 56.409 24.2769C54.2766 21.5108 52.7103 18.3454 51.7809 15.3625C50.4093 10.957 50.6288 7.07655 51.8944 5.28775C52.5958 4.29729 53.5809 3.7542 54.7877 3.61936C56.3327 3.44893 58.5192 4.01098 61.2097 6.30318C64.9233 9.47872 66.1885 13.5486 65.6514 17.8058C65.3665 20.0435 64.5463 22.3318 63.4491 24.4954C65.1453 25.8725 67.168 26.7889 69.5095 26.812C74.4695 26.8935 77.7953 23.379 79.9592 19.0426C81.8369 15.2919 83.9785 9.67832 82.7215 4.87749C82.2953 3.24614 81.4125 1.78468 82.6483 0.633599C84.538 -1.14991 86.705 1.17052 87.2937 3.41153C88.5556 8.22541 87.4236 13.7192 86.1678 17.8817C83.8656 25.5427 78.683 32.0752 70.7229 32.1425C66.9893 32.1573 63.6733 30.8238 60.8762 28.7331C58.7691 31.7324 56.4059 34.1427 54.8093 35.3051C46.8942 40.9215 38.535 42.9953 30.0687 41.56C21.6113 40.1302 13.0232 35.2359 4.73333 26.7595C4.08784 26.124 3.98863 25.216 4.52022 24.7253ZM59.1571 18.2994C59.5352 17.0257 59.7457 15.7557 59.7127 14.5214C59.668 12.9514 59.1875 11.445 57.7841 10.2523C57.5466 10.0529 57.2539 9.77892 57.0164 9.57952C56.9126 10.111 56.7476 11.1609 56.8418 12.0558C57.0619 14.0546 57.7973 16.4876 58.9923 18.8123C59.0613 18.6369 59.1137 18.471 59.1571 18.2994Z" fill="#4D2C5E"/>
<path fill-rule="evenodd" clip-rule="evenodd" d="M56.8792 9.21235C56.7406 9.27371 56.605 9.30722 56.6041 9.19763C56.6061 9.06018 56.7063 9.09356 56.8792 9.21235Z" fill="#4D2C5E"/>
<path fill-rule="evenodd" clip-rule="evenodd" d="M8.95113 29.1305C9.79729 30.6754 10.6306 32.3114 11.2663 33.8527C12.2479 36.2567 12.7928 38.4154 12.3654 39.8921C12.2638 40.6415 11.5053 41.0269 10.6852 40.7483C9.86114 40.4772 9.27631 39.6426 9.38676 38.8987C9.38593 38.5212 9.20318 38.1084 9.0224 37.6474C8.60584 36.5616 7.81165 35.3867 6.94866 34.1189C5.84583 32.5016 4.55319 30.8639 3.43852 29.3582C2.42509 27.9956 1.56702 26.7408 1.00093 25.7592C0.107559 24.2143 -0.0669862 22.9834 0.0198476 22.2841C0.0454912 22.1019 1.36345 19.4997 4.26418 20.9302C5.30156 21.4448 7.88855 22.8661 8.01637 22.9367C9.58073 23.8824 12.4823 25.6012 15.1797 26.6356C16.0322 26.9644 16.8533 27.2634 17.584 27.3764C17.6155 27.3169 17.647 27.2574 17.6873 27.2035C18.265 26.3571 19.5623 26.2913 20.6025 27.0458C21.1738 27.4156 21.97 28.3636 22.2147 28.9046C22.6853 29.9551 22.3742 30.7214 21.4653 31.2797C20.2267 32.0371 18.3187 32.0752 16.1227 31.6542C13.8137 31.2016 11.1361 30.1299 8.95113 29.1305ZM6.01938 24.1687C5.8238 23.8471 5.74423 23.6184 5.95766 23.5941C6.19666 23.5661 6.0775 23.9474 6.01938 24.1687Z" fill="#4D2C5E"/>
</svg>
