<svg width="88" height="42" viewBox="0 0 88 42" fill="none" xmlns="http://www.w3.org/2000/svg">
<path fill-rule="evenodd" clip-rule="evenodd" d="M83.3245 24.7253C82.7929 24.2347 81.8495 24.3517 81.2 24.9798C73.4391 32.2872 65.6562 36.4453 58.0819 37.3982C50.7068 38.3251 43.6016 36.1177 36.9674 30.8879C35.49 29.7497 33.2846 27.2799 31.4358 24.2769C33.5681 21.5108 35.1344 18.3454 36.0639 15.3625C37.4354 10.957 37.216 7.07655 35.9503 5.28775C35.249 4.29729 34.2638 3.7542 33.0571 3.61936C31.5121 3.44893 29.3256 4.01098 26.635 6.30318C22.9215 9.47872 21.6563 13.5486 22.1934 17.8058C22.4782 20.0435 23.2984 22.3318 24.3956 24.4954C22.6994 25.8725 20.6768 26.7889 18.3353 26.812C13.3753 26.8935 10.0494 23.379 7.88557 19.0426C6.00789 15.2919 3.86621 9.67832 5.12324 4.87749C5.54947 3.24614 6.43225 1.78468 5.19646 0.633599C3.30676 -1.14991 1.13971 1.17052 0.551063 3.41153C-0.710891 8.22541 0.42119 13.7192 1.67694 17.8817C3.97917 25.5427 9.16171 32.0752 17.1218 32.1425C20.8554 32.1573 24.1714 30.8238 26.9685 28.7331C29.0756 31.7324 31.4388 34.1427 33.0355 35.3051C40.9505 40.9215 49.3098 42.9953 57.776 41.56C66.2334 40.1302 74.8215 35.2359 83.1114 26.7595C83.7569 26.124 83.8561 25.216 83.3245 24.7253ZM28.6876 18.2994C28.3095 17.0257 28.099 15.7557 28.132 14.5214C28.1767 12.9514 28.6572 11.445 30.0607 10.2523C30.2982 10.0529 30.5909 9.77892 30.8284 9.57952C30.9321 10.111 31.0972 11.1609 31.0029 12.0558C30.7829 14.0546 30.0474 16.4876 28.8525 18.8123C28.7834 18.6369 28.7311 18.471 28.6876 18.2994Z" fill="#4D2C5E"/>
<path fill-rule="evenodd" clip-rule="evenodd" d="M30.9656 9.21235C31.1041 9.27371 31.2397 9.30722 31.2407 9.19763C31.2387 9.06018 31.1385 9.09356 30.9656 9.21235Z" fill="#4D2C5E"/>
<path fill-rule="evenodd" clip-rule="evenodd" d="M78.8936 29.1305C78.0475 30.6754 77.2141 32.3114 76.5784 33.8527C75.5969 36.2567 75.0519 38.4154 75.4794 39.8921C75.581 40.6415 76.3394 41.0269 77.1596 40.7483C77.9836 40.4772 78.5685 39.6426 78.458 38.8987C78.4588 38.5212 78.6416 38.1084 78.8224 37.6474C79.2389 36.5616 80.0331 35.3867 80.8961 34.1189C81.9989 32.5016 83.2916 30.8639 84.4062 29.3582C85.4197 27.9956 86.2777 26.7408 86.8438 25.7592C87.7372 24.2143 87.9118 22.9834 87.8249 22.2841C87.7993 22.1019 86.4813 19.4997 83.5806 20.9302C82.5432 21.4448 79.9562 22.8661 79.8284 22.9367C78.264 23.8824 75.3624 25.6012 72.6651 26.6356C71.8126 26.9644 70.9915 27.2634 70.2608 27.3764C70.2293 27.3169 70.1978 27.2574 70.1574 27.2035C69.5798 26.3571 68.2825 26.2913 67.2423 27.0458C66.671 27.4156 65.8748 28.3636 65.6301 28.9046C65.1594 29.9551 65.4705 30.7214 66.3795 31.2797C67.618 32.0371 69.526 32.0752 71.722 31.6542C74.0311 31.2016 76.7087 30.1299 78.8936 29.1305ZM81.8254 24.1687C82.021 23.8471 82.1005 23.6184 81.8871 23.5941C81.6481 23.5661 81.7673 23.9474 81.8254 24.1687Z" fill="#4D2C5E"/>
</svg>
