<svg width="25" height="24" viewBox="0 0 25 24" fill="none" xmlns="http://www.w3.org/2000/svg">
<mask id="path-1-inside-1_0_99" fill="white">
<path d="M15.1733 14.4844C14.8071 14.0859 14.4043 13.7344 13.9648 13.4297C13.5254 13.125 13.0534 12.8633 12.5488 12.6445C12.0443 12.4258 11.5316 12.2656 11.0107 12.1641C10.4899 12.0625 9.94466 12.0078 9.375 12C8.65885 12 7.96712 12.0898 7.2998 12.2695C6.63249 12.4492 6.00993 12.6992 5.43213 13.0195C4.85433 13.3398 4.32943 13.7305 3.85742 14.1914C3.38542 14.6523 2.97852 15.1602 2.63672 15.7148C2.29492 16.2695 2.03044 16.8672 1.84326 17.5078C1.65609 18.1484 1.5625 18.8125 1.5625 19.5H0C0 18.5625 0.142415 17.6602 0.427246 16.793C0.712077 15.9258 1.12305 15.125 1.66016 14.3906C2.19727 13.6562 2.83203 13.0039 3.56445 12.4336C4.29688 11.8633 5.12695 11.4141 6.05469 11.0859C5.13509 10.5078 4.41895 9.78125 3.90625 8.90625C3.39355 8.03125 3.13314 7.0625 3.125 6C3.125 5.17188 3.28776 4.39453 3.61328 3.66797C3.9388 2.94141 4.38232 2.30469 4.94385 1.75781C5.50537 1.21094 6.16862 0.78125 6.93359 0.46875C7.69857 0.15625 8.51237 0 9.375 0C10.2376 0 11.0474 0.15625 11.8042 0.46875C12.561 0.78125 13.2243 1.20703 13.7939 1.74609C14.3636 2.28516 14.8112 2.92188 15.1367 3.65625C15.4622 4.39062 15.625 5.17188 15.625 6C15.625 6.51562 15.5599 7.01953 15.4297 7.51172C15.2995 8.00391 15.1042 8.46875 14.8438 8.90625C14.5833 9.34375 14.2782 9.74609 13.9282 10.1133C13.5783 10.4805 13.1673 10.8047 12.6953 11.0859C13.3789 11.3359 14.0218 11.6562 14.624 12.0469C15.2262 12.4375 15.7756 12.8945 16.272 13.418L15.1733 14.4844ZM4.6875 6C4.6875 6.625 4.80957 7.20703 5.05371 7.74609C5.29785 8.28516 5.63151 8.76172 6.05469 9.17578C6.47786 9.58984 6.97428 9.91406 7.54395 10.1484C8.11361 10.3828 8.72396 10.5 9.375 10.5C10.0179 10.5 10.6242 10.3828 11.1938 10.1484C11.7635 9.91406 12.2599 9.59375 12.6831 9.1875C13.1063 8.78125 13.444 8.30469 13.6963 7.75781C13.9486 7.21094 14.0706 6.625 14.0625 6C14.0625 5.38281 13.9404 4.80078 13.6963 4.25391C13.4521 3.70703 13.1185 3.23047 12.6953 2.82422C12.2721 2.41797 11.7716 2.09375 11.1938 1.85156C10.616 1.60938 10.0098 1.49219 9.375 1.5C8.72396 1.5 8.11768 1.61719 7.55615 1.85156C6.99463 2.08594 6.49821 2.40625 6.06689 2.8125C5.63558 3.21875 5.29785 3.69922 5.05371 4.25391C4.80957 4.80859 4.6875 5.39062 4.6875 6ZM22.5586 10.5C22.9004 10.5 23.2178 10.5586 23.5107 10.6758C23.8037 10.793 24.0641 10.9531 24.292 11.1562C24.5199 11.3594 24.6908 11.6055 24.8047 11.8945C24.9186 12.1836 24.9837 12.4922 25 12.8203C25 13.125 24.939 13.4219 24.8169 13.7109C24.6948 14 24.5199 14.2539 24.292 14.4727L15.5396 22.875L10.9375 23.9766L12.085 19.5586L20.8374 11.168C21.0734 10.9414 21.3379 10.7734 21.6309 10.6641C21.9238 10.5547 22.2331 10.5 22.5586 10.5ZM23.1812 13.418C23.3521 13.2539 23.4375 13.0547 23.4375 12.8203C23.4375 12.5781 23.3561 12.3828 23.1934 12.2344C23.0306 12.0859 22.819 12.0078 22.5586 12C22.4447 12 22.3348 12.0156 22.229 12.0469C22.1232 12.0781 22.0296 12.1367 21.9482 12.2227L13.501 20.332L13.0859 21.9141L14.7339 21.5156L23.1812 13.418Z"/>
</mask>
<path d="M15.1733 14.4844C14.8071 14.0859 14.4043 13.7344 13.9648 13.4297C13.5254 13.125 13.0534 12.8633 12.5488 12.6445C12.0443 12.4258 11.5316 12.2656 11.0107 12.1641C10.4899 12.0625 9.94466 12.0078 9.375 12C8.65885 12 7.96712 12.0898 7.2998 12.2695C6.63249 12.4492 6.00993 12.6992 5.43213 13.0195C4.85433 13.3398 4.32943 13.7305 3.85742 14.1914C3.38542 14.6523 2.97852 15.1602 2.63672 15.7148C2.29492 16.2695 2.03044 16.8672 1.84326 17.5078C1.65609 18.1484 1.5625 18.8125 1.5625 19.5H0C0 18.5625 0.142415 17.6602 0.427246 16.793C0.712077 15.9258 1.12305 15.125 1.66016 14.3906C2.19727 13.6562 2.83203 13.0039 3.56445 12.4336C4.29688 11.8633 5.12695 11.4141 6.05469 11.0859C5.13509 10.5078 4.41895 9.78125 3.90625 8.90625C3.39355 8.03125 3.13314 7.0625 3.125 6C3.125 5.17188 3.28776 4.39453 3.61328 3.66797C3.9388 2.94141 4.38232 2.30469 4.94385 1.75781C5.50537 1.21094 6.16862 0.78125 6.93359 0.46875C7.69857 0.15625 8.51237 0 9.375 0C10.2376 0 11.0474 0.15625 11.8042 0.46875C12.561 0.78125 13.2243 1.20703 13.7939 1.74609C14.3636 2.28516 14.8112 2.92188 15.1367 3.65625C15.4622 4.39062 15.625 5.17188 15.625 6C15.625 6.51562 15.5599 7.01953 15.4297 7.51172C15.2995 8.00391 15.1042 8.46875 14.8438 8.90625C14.5833 9.34375 14.2782 9.74609 13.9282 10.1133C13.5783 10.4805 13.1673 10.8047 12.6953 11.0859C13.3789 11.3359 14.0218 11.6562 14.624 12.0469C15.2262 12.4375 15.7756 12.8945 16.272 13.418L15.1733 14.4844ZM4.6875 6C4.6875 6.625 4.80957 7.20703 5.05371 7.74609C5.29785 8.28516 5.63151 8.76172 6.05469 9.17578C6.47786 9.58984 6.97428 9.91406 7.54395 10.1484C8.11361 10.3828 8.72396 10.5 9.375 10.5C10.0179 10.5 10.6242 10.3828 11.1938 10.1484C11.7635 9.91406 12.2599 9.59375 12.6831 9.1875C13.1063 8.78125 13.444 8.30469 13.6963 7.75781C13.9486 7.21094 14.0706 6.625 14.0625 6C14.0625 5.38281 13.9404 4.80078 13.6963 4.25391C13.4521 3.70703 13.1185 3.23047 12.6953 2.82422C12.2721 2.41797 11.7716 2.09375 11.1938 1.85156C10.616 1.60938 10.0098 1.49219 9.375 1.5C8.72396 1.5 8.11768 1.61719 7.55615 1.85156C6.99463 2.08594 6.49821 2.40625 6.06689 2.8125C5.63558 3.21875 5.29785 3.69922 5.05371 4.25391C4.80957 4.80859 4.6875 5.39062 4.6875 6ZM22.5586 10.5C22.9004 10.5 23.2178 10.5586 23.5107 10.6758C23.8037 10.793 24.0641 10.9531 24.292 11.1562C24.5199 11.3594 24.6908 11.6055 24.8047 11.8945C24.9186 12.1836 24.9837 12.4922 25 12.8203C25 13.125 24.939 13.4219 24.8169 13.7109C24.6948 14 24.5199 14.2539 24.292 14.4727L15.5396 22.875L10.9375 23.9766L12.085 19.5586L20.8374 11.168C21.0734 10.9414 21.3379 10.7734 21.6309 10.6641C21.9238 10.5547 22.2331 10.5 22.5586 10.5ZM23.1812 13.418C23.3521 13.2539 23.4375 13.0547 23.4375 12.8203C23.4375 12.5781 23.3561 12.3828 23.1934 12.2344C23.0306 12.0859 22.819 12.0078 22.5586 12C22.4447 12 22.3348 12.0156 22.229 12.0469C22.1232 12.0781 22.0296 12.1367 21.9482 12.2227L13.501 20.332L13.0859 21.9141L14.7339 21.5156L23.1812 13.418Z" fill="#275473"/>
<path d="M15.1733 14.4844L11.8602 17.5295L14.9895 20.9342L18.3076 17.7134L15.1733 14.4844ZM9.375 12L9.43671 7.50042L9.40586 7.5H9.375V12ZM1.5625 19.5V24H6.0625V19.5H1.5625ZM0 19.5H-4.5V24H0V19.5ZM6.05469 11.0859L7.55518 15.3284L16.3244 12.2269L8.44974 7.27625L6.05469 11.0859ZM3.125 6H-1.375V6.01723L-1.37487 6.03447L3.125 6ZM12.6953 11.0859L10.3919 7.22018L2.26474 12.0628L11.1497 15.3122L12.6953 11.0859ZM16.272 13.418L19.4062 16.647L22.598 13.5488L19.5371 10.3214L16.272 13.418ZM14.0625 6H9.5625V6.0293L9.56288 6.05859L14.0625 6ZM9.375 1.5V6H9.40269L9.43038 5.99966L9.375 1.5ZM25 12.8203H29.5V12.7088L29.4945 12.5974L25 12.8203ZM15.5396 22.875L16.5871 27.2514L17.7749 26.9671L18.6559 26.1212L15.5396 22.875ZM10.9375 23.9766L6.58201 22.8453L4.69855 30.0971L11.985 28.3529L10.9375 23.9766ZM12.085 19.5586L8.97083 16.3102L8.05011 17.1928L7.72947 18.4274L12.085 19.5586ZM20.8374 11.168L23.9515 14.4164L23.9538 14.4142L20.8374 11.168ZM23.1812 13.418L26.2952 16.6665L26.2975 16.6642L23.1812 13.418ZM22.5586 12L22.6935 7.50202L22.6261 7.5H22.5586V12ZM21.9482 12.2227L25.0646 15.4689L25.142 15.3947L25.2157 15.3168L21.9482 12.2227ZM13.501 20.332L10.3846 17.0858L9.46999 17.9638L9.14827 19.1901L13.501 20.332ZM13.0859 21.9141L8.73323 20.7722L6.82175 28.0583L14.1435 26.288L13.0859 21.9141ZM14.7339 21.5156L15.7914 25.8896L16.9715 25.6043L17.8479 24.7641L14.7339 21.5156ZM18.4865 11.4392C17.8981 10.7991 17.2446 10.2279 16.5289 9.7316L11.4008 17.1278C11.564 17.2409 11.7161 17.3728 11.8602 17.5295L18.4865 11.4392ZM16.5289 9.7316C15.8394 9.25355 15.1072 8.84899 14.3388 8.51585L10.7588 16.7732C10.9996 16.8776 11.2114 16.9964 11.4008 17.1278L16.5289 9.7316ZM14.3388 8.51585C13.5468 8.1725 12.7233 7.91326 11.872 7.74725L10.1495 16.5809C10.3398 16.618 10.5417 16.6791 10.7588 16.7732L14.3388 8.51585ZM11.872 7.74725C11.0692 7.5907 10.2553 7.51165 9.43671 7.50042L9.31329 16.4996C9.63402 16.504 9.91064 16.5343 10.1495 16.5809L11.872 7.74725ZM9.375 7.5C8.27812 7.5 7.19226 7.63821 6.12977 7.9243L8.46984 16.6148C8.74199 16.5415 9.03959 16.5 9.375 16.5V7.5ZM6.12977 7.9243C5.12607 8.19457 4.16189 8.57849 3.25031 9.08384L7.61394 16.9552C7.85797 16.8199 8.13891 16.7039 8.46984 16.6148L6.12977 7.9243ZM3.25031 9.08384C2.32175 9.5986 1.47315 10.23 0.713411 10.9719L7.00143 17.4109C7.1857 17.231 7.38691 17.0811 7.61394 16.9552L3.25031 9.08384ZM0.713411 10.9719C-0.018528 11.6867 -0.657079 12.4822 -1.19435 13.3541L6.46779 18.0755C6.61411 17.8381 6.78936 17.618 7.00143 17.4109L0.713411 10.9719ZM-1.19435 13.3541C-1.75246 14.2599 -2.17884 15.2282 -2.47615 16.2458L6.16267 18.7698C6.23971 18.5061 6.34231 18.2792 6.46779 18.0755L-1.19435 13.3541ZM-2.47615 16.2458C-2.78669 17.3086 -2.9375 18.3983 -2.9375 19.5H6.0625C6.0625 19.2267 6.09886 18.9882 6.16267 18.7698L-2.47615 16.2458ZM1.5625 15H0V24H1.5625V15ZM4.5 19.5C4.5 19.0264 4.57059 18.5989 4.70254 18.1972L-3.84805 15.3887C-4.28576 16.7214 -4.5 18.0986 -4.5 19.5H4.5ZM4.70254 18.1972C4.84051 17.7771 5.03489 17.3992 5.29235 17.0472L-1.97204 11.7341C-2.7888 12.8508 -3.41636 14.0744 -3.84805 15.3887L4.70254 18.1972ZM5.29235 17.0472C5.57815 16.6564 5.91921 16.3034 6.32915 15.9841L0.799754 8.88304C-0.255146 9.70445 -1.18362 10.6561 -1.97204 11.7341L5.29235 17.0472ZM6.32915 15.9841C6.65772 15.7283 7.05578 15.505 7.55518 15.3284L4.55419 6.84347C3.19813 7.32309 1.93603 7.99826 0.799754 8.88304L6.32915 15.9841ZM8.44974 7.27625C8.09742 7.05476 7.91039 6.83873 7.78885 6.63129L0.0236529 11.1812C0.927499 12.7238 2.17276 13.9609 3.65964 14.8956L8.44974 7.27625ZM7.78885 6.63129C7.69386 6.46918 7.62727 6.27917 7.62487 5.96553L-1.37487 6.03447C-1.36099 7.84583 -0.906749 9.59332 0.0236529 11.1812L7.78885 6.63129ZM7.625 6C7.625 5.77997 7.66417 5.63237 7.71995 5.50787L-0.49339 1.82806C-1.08865 3.15669 -1.375 4.56378 -1.375 6H7.625ZM7.71995 5.50787C7.81706 5.29113 7.93523 5.12597 8.0835 4.98156L1.80419 -1.46594C0.82942 -0.516594 0.060545 0.591681 -0.49339 1.82806L7.71995 5.50787ZM8.0835 4.98156C8.20852 4.85981 8.37631 4.74039 8.63537 4.63456L5.23182 -3.69706C3.96093 -3.17789 2.80222 -2.43793 1.80419 -1.46594L8.0835 4.98156ZM8.63537 4.63456C8.83649 4.5524 9.06986 4.5 9.375 4.5V-4.5C7.95488 -4.5 6.56064 -4.2399 5.23182 -3.69706L8.63537 4.63456ZM9.375 4.5C9.6804 4.5 9.90343 4.55243 10.0868 4.62813L13.5216 -3.69063C12.1913 -4.23993 10.7949 -4.5 9.375 -4.5V4.5ZM10.0868 4.62813C10.3572 4.73978 10.5489 4.87077 10.701 5.01465L16.8869 -1.52246C15.8997 -2.45671 14.7649 -3.17728 13.5216 -3.69063L10.0868 4.62813ZM10.701 5.01465C10.8274 5.13432 10.9326 5.27641 11.0228 5.47981L19.2507 1.83269C18.6898 0.567339 17.8998 -0.564008 16.8869 -1.52246L10.701 5.01465ZM11.0228 5.47981C11.0858 5.622 11.125 5.78009 11.125 6H20.125C20.125 4.56366 19.8387 3.15925 19.2507 1.83269L11.0228 5.47981ZM11.125 6C11.125 6.13216 11.1089 6.24902 11.0793 6.36084L19.78 8.6626C20.0109 7.79004 20.125 6.89909 20.125 6H11.125ZM11.0793 6.36084C11.0561 6.44881 11.0235 6.52633 10.9769 6.60457L18.7106 11.2079C19.1848 10.4112 19.5429 9.559 19.78 8.6626L11.0793 6.36084ZM10.9769 6.60457C10.8882 6.75359 10.7872 6.88645 10.6706 7.00875L17.1858 13.2178C17.7691 12.6057 18.2784 11.9339 18.7106 11.2079L10.9769 6.60457ZM10.6706 7.00875C10.6251 7.05654 10.5417 7.13087 10.3919 7.22018L14.9988 14.9517C15.7929 14.4785 16.5315 13.9044 17.1858 13.2178L10.6706 7.00875ZM11.1497 15.3122C11.5207 15.4479 11.8601 15.6179 12.1752 15.8222L17.0729 8.27155C16.1835 7.69464 15.2371 7.22401 14.2409 6.85969L11.1497 15.3122ZM12.1752 15.8222C12.478 16.0186 12.7535 16.2475 13.0068 16.5146L19.5371 10.3214C18.7976 9.54158 17.9745 8.85639 17.0729 8.27155L12.1752 15.8222ZM13.1377 10.189L12.0391 11.2554L18.3076 17.7134L19.4062 16.647L13.1377 10.189ZM0.1875 6C0.1875 7.22862 0.431491 8.44776 0.954522 9.60261L9.1529 5.88958C9.16687 5.92042 9.17725 5.95306 9.18323 5.98158C9.18906 6.00936 9.1875 6.01786 9.1875 6H0.1875ZM0.954522 9.60261C1.42904 10.6503 2.08562 11.588 2.90753 12.3922L9.20184 5.95935C9.1774 5.93544 9.16666 5.91997 9.1529 5.88958L0.954522 9.60261ZM2.90753 12.3922C3.76056 13.2269 4.74952 13.8647 5.83177 14.31L9.25612 5.98689C9.22247 5.97305 9.2077 5.96358 9.20508 5.96187C9.20279 5.96037 9.20287 5.96035 9.20184 5.95935L2.90753 12.3922ZM5.83177 14.31C6.9751 14.7804 8.17052 15 9.375 15V6C9.32076 6 9.29007 5.99525 9.27746 5.99283C9.26541 5.99052 9.25992 5.98846 9.25612 5.98689L5.83177 14.31ZM9.375 15C10.5791 15 11.7695 14.7776 12.906 14.31L9.48167 5.98689C9.47882 5.98806 9.45668 6 9.375 6V15ZM12.906 14.31C13.9705 13.872 14.9496 13.2497 15.7995 12.4337L9.56671 5.94126C9.56449 5.94339 9.56141 5.9462 9.55361 5.95123C9.54543 5.95651 9.52365 5.96962 9.48167 5.98689L12.906 14.31ZM15.7995 12.4337C16.639 11.6278 17.3012 10.6861 17.7825 9.6428L9.61012 5.87282C9.58685 5.92325 9.57358 5.93467 9.56671 5.94126L15.7995 12.4337ZM17.7825 9.6428C18.3264 8.4637 18.5786 7.21088 18.5621 5.94141L9.56288 6.05859C9.56289 6.059 9.56279 6.05247 9.56398 6.0399C9.56517 6.02726 9.56747 6.01044 9.57164 5.99041C9.58051 5.94784 9.59448 5.90671 9.61012 5.87282L17.7825 9.6428ZM18.5625 6C18.5625 4.77048 18.3152 3.5614 17.8054 2.41948L9.58717 6.08834C9.57971 6.07163 9.57189 6.04869 9.56677 6.02428C9.56173 6.00027 9.5625 5.99006 9.5625 6H18.5625ZM17.8054 2.41948C17.3296 1.35371 16.6627 0.394896 15.8117 -0.422024L9.57892 6.07046C9.58058 6.07205 9.58057 6.07218 9.57952 6.07096C9.57847 6.06974 9.57741 6.06836 9.57663 6.06725C9.57586 6.06615 9.57627 6.0666 9.57778 6.06926C9.5793 6.07196 9.58257 6.07804 9.58717 6.08834L17.8054 2.41948ZM15.8117 -0.422024C14.9626 -1.23717 13.9868 -1.85706 12.9334 -2.29861L9.45428 6.00173C9.50927 6.02478 9.54083 6.04335 9.55595 6.05315C9.57059 6.06263 9.57665 6.06828 9.57892 6.07046L15.8117 -0.422024ZM12.9334 -2.29861C11.7798 -2.78214 10.5619 -3.01495 9.31962 -2.99966L9.43038 5.99966C9.4416 5.99952 9.44813 5.99998 9.45068 6.0002C9.45318 6.00042 9.45332 6.00055 9.45179 6.00025C9.45026 5.99996 9.44888 5.99959 9.44825 5.9994C9.44764 5.99922 9.44952 5.99974 9.45428 6.00173L12.9334 -2.29861ZM9.375 -3C8.17103 -3 6.97107 -2.78048 5.82282 -2.30121L9.28948 6.00434C9.28276 6.00714 9.27977 6.00732 9.286 6.00611C9.29295 6.00477 9.32064 6 9.375 6V-3ZM5.82282 -2.30121C4.77522 -1.86395 3.81773 -1.25086 2.98152 -0.463238L9.15227 6.08824C9.17868 6.06336 9.21404 6.03583 9.28948 6.00434L5.82282 -2.30121ZM2.98152 -0.463238C2.10106 0.366054 1.4164 1.34737 0.935007 2.4411L9.17241 6.06672C9.17576 6.05912 9.1775 6.05613 9.17711 6.05681C9.17671 6.05753 9.17491 6.06062 9.17161 6.06531C9.1683 6.07002 9.16449 6.07491 9.16051 6.0795C9.15654 6.08408 9.15355 6.08704 9.15227 6.08824L2.98152 -0.463238ZM0.935007 2.4411C0.437996 3.57031 0.1875 4.77 0.1875 6H9.1875C9.1875 5.99802 9.18746 6.00996 9.18323 6.03014C9.17898 6.05039 9.17367 6.06386 9.17241 6.06672L0.935007 2.4411ZM22.5586 15C22.3759 15 22.1208 14.9665 21.8395 14.8539L25.182 6.49764C24.3147 6.15072 23.4249 6 22.5586 6V15ZM21.8395 14.8539C21.6638 14.7836 21.473 14.6717 21.2976 14.5154L27.2864 7.79715C26.6553 7.23456 25.9437 6.8023 25.182 6.49764L21.8395 14.8539ZM21.2976 14.5154C20.9902 14.2413 20.7576 13.8985 20.6181 13.5446L28.9912 10.2444C28.6239 9.31241 28.0495 8.47742 27.2864 7.79715L21.2976 14.5154ZM20.6181 13.5446C20.5424 13.3523 20.5121 13.1762 20.5055 13.0433L29.4945 12.5974C29.4553 11.8082 29.2949 11.0148 28.9912 10.2444L20.6181 13.5446ZM20.5 12.8203C20.5 12.5055 20.5666 12.2083 20.6714 11.9603L28.9624 15.4616C29.3113 14.6354 29.5 13.7445 29.5 12.8203H20.5ZM20.6714 11.9603C20.7888 11.6822 20.9654 11.4282 21.1756 11.2264L27.4084 17.7189C28.0743 17.0796 28.6008 16.3178 28.9624 15.4616L20.6714 11.9603ZM21.1756 11.2264L12.4232 19.6288L18.6559 26.1212L27.4084 17.7189L21.1756 11.2264ZM14.492 18.4986L9.88996 19.6002L11.985 28.3529L16.5871 27.2514L14.492 18.4986ZM15.293 25.1078L16.4405 20.6898L7.72947 18.4274L6.58201 22.8453L15.293 25.1078ZM15.1991 22.807L23.9515 14.4164L17.7233 7.91955L8.97083 16.3102L15.1991 22.807ZM23.9538 14.4142C23.768 14.5926 23.5131 14.7647 23.2048 14.8798L20.057 6.44828C19.1626 6.78216 18.3789 7.29019 17.721 7.92173L23.9538 14.4142ZM23.2048 14.8798C22.9738 14.9661 22.7482 15 22.5586 15V6C21.718 6 20.8739 6.1433 20.057 6.44828L23.2048 14.8798ZM26.2975 16.6642C27.3416 15.6619 27.9375 14.2949 27.9375 12.8203H18.9375C18.9375 12.3777 19.0211 11.8768 19.2378 11.3716C19.454 10.8676 19.7559 10.4682 20.0648 10.1717L26.2975 16.6642ZM27.9375 12.8203C27.9375 11.4531 27.4223 10.0008 26.2257 8.90946L20.161 15.5593C19.7771 15.2091 19.4453 14.7573 19.2226 14.223C19.0041 13.6986 18.9375 13.208 18.9375 12.8203H27.9375ZM26.2257 8.90946C25.1279 7.90833 23.8224 7.53589 22.6935 7.50202L22.4237 16.498C21.8156 16.4797 20.9333 16.2635 20.161 15.5593L26.2257 8.90946ZM22.5586 7.5C22.0274 7.5 21.4874 7.57373 20.9542 7.73121L23.5038 16.3625C23.1822 16.4575 22.862 16.5 22.5586 16.5V7.5ZM20.9542 7.73121C20.0329 8.00337 19.2661 8.51041 18.6808 9.12849L25.2157 15.3168C24.7931 15.763 24.2136 16.1529 23.5038 16.3625L20.9542 7.73121ZM18.8318 8.97641L10.3846 17.0858L16.6174 23.5783L25.0646 15.4689L18.8318 8.97641ZM9.14827 19.1901L8.73323 20.7722L17.4386 23.056L17.8537 21.4739L9.14827 19.1901ZM14.1435 26.288L15.7914 25.8896L13.6764 17.1417L12.0284 17.5401L14.1435 26.288ZM17.8479 24.7641L26.2952 16.6665L20.0671 10.1695L11.6198 18.2671L17.8479 24.7641Z" fill="#275473" mask="url(#path-1-inside-1_0_99)"/>
</svg>
