<svg width="340" height="92" viewBox="0 0 340 92" fill="none" xmlns="http://www.w3.org/2000/svg">
<g filter="url(#filter0_b_1003_16632)">
<path d="M0.399866 46.4098C0.366761 27.5536 0.350208 18.1255 6.19778 12.2574C12.0453 6.38927 21.4734 6.37272 40.3296 6.33961L85.0795 6.26105L113.172 6.21173C115.656 6.20736 116.898 6.20518 118.138 6.17917C124.328 6.04928 130.501 5.47388 136.609 4.45743C137.832 4.25387 139.053 4.02642 141.496 3.57151C146.409 2.65656 148.865 2.19908 151.319 1.83902C163.587 0.0389847 176.05 0.0171027 188.325 1.77405C190.78 2.12549 193.238 2.57434 198.154 3.47204C200.598 3.91837 201.82 4.14153 203.044 4.34079C209.155 5.33579 215.33 5.88951 221.521 5.99766C222.76 6.01932 224.003 6.01714 226.487 6.01278L254.579 5.96346L299.329 5.88489C318.185 5.85179 327.613 5.83523 333.482 11.6828C339.35 17.5304 339.366 26.9585 339.399 45.8146L339.408 50.9994C339.442 69.8556 339.458 79.2837 333.611 85.1518C327.763 91.02 318.335 91.0365 299.479 91.0696L40.4791 91.5244C21.623 91.5575 12.1949 91.574 6.32677 85.7264C0.458627 79.8789 0.442075 70.4508 0.408969 51.5946L0.399866 46.4098Z" fill="#FFFCED" fill-opacity="0.37"/>
<path d="M0.649866 46.4094C0.633301 36.9742 0.621452 29.923 1.3414 24.496C2.06039 19.0761 3.50518 15.3137 6.37487 12.4339C9.24455 9.55409 13.0019 8.0961 18.4192 7.35809C23.8437 6.61909 30.8949 6.60618 40.33 6.58961L85.0799 6.51105L113.172 6.46172L113.175 6.46172C115.657 6.45736 116.901 6.45518 118.143 6.42911C124.346 6.29897 130.53 5.72246 136.65 4.70404C137.876 4.50007 139.099 4.27219 141.539 3.81777L141.542 3.81729C146.456 2.902 148.907 2.44557 151.355 2.08637C163.599 0.289825 176.039 0.267985 188.289 2.02153C190.739 2.37213 193.191 2.81994 198.109 3.71797L198.111 3.71844C200.553 4.16429 201.777 4.38788 203.004 4.58754C209.127 5.58447 215.314 6.13926 221.516 6.24762C222.758 6.26933 224.003 6.26714 226.484 6.26278L226.488 6.26278L254.58 6.21346L299.33 6.13489C308.765 6.11833 315.816 6.10648 321.243 6.82642C326.663 7.54541 330.425 8.9902 333.305 11.8599C336.185 14.7296 337.643 18.487 338.381 23.9042C339.12 29.3287 339.133 36.3799 339.149 45.815L339.158 50.9999C339.175 60.435 339.187 67.4862 338.467 72.9133C337.748 78.3331 336.303 82.0956 333.433 84.9754C330.564 87.8551 326.806 89.3131 321.389 90.0512C315.965 90.7902 308.913 90.8031 299.478 90.8196L40.4787 91.2744C31.0436 91.2909 23.9923 91.3028 18.5653 90.5828C13.1455 89.8638 9.38302 88.419 6.50323 85.5494C3.62345 82.6797 2.16546 78.9223 1.42744 73.505C0.688444 68.0806 0.675534 61.0293 0.658969 51.5942L0.649866 46.4094Z" stroke="url(#paint0_linear_1003_16632)" stroke-width="0.5"/>
</g>
<defs>
<filter id="filter0_b_1003_16632" x="-54.6047" y="-54.5273" width="449.018" height="201.057" filterUnits="userSpaceOnUse" color-interpolation-filters="sRGB">
<feFlood flood-opacity="0" result="BackgroundImageFix"/>
<feGaussianBlur in="BackgroundImageFix" stdDeviation="27.5"/>
<feComposite in2="SourceAlpha" operator="in" result="effect1_backgroundBlur_1003_16632"/>
<feBlend mode="normal" in="SourceGraphic" in2="effect1_backgroundBlur_1003_16632" result="shape"/>
</filter>
<linearGradient id="paint0_linear_1003_16632" x1="621.824" y1="2.58339" x2="876.64" y2="166.42" gradientUnits="userSpaceOnUse">
<stop stop-color="white"/>
<stop offset="0.536458" stop-opacity="0"/>
<stop offset="1" stop-color="white"/>
</linearGradient>
</defs>
</svg>
