<svg width="776" height="171" viewBox="0 0 776 171" fill="none" xmlns="http://www.w3.org/2000/svg">
<path d="M202.437 6.33549C205.346 1.17964 211.884 -0.641606 217.04 2.26762L259.99 26.5022C265.145 29.4114 266.967 35.9494 264.057 41.1053L253.731 59.4065C250.822 64.5624 244.284 66.3836 239.128 63.4744L196.178 39.2399C191.022 36.3306 189.201 29.7926 192.11 24.6368L202.437 6.33549Z" fill="white"/>
<path d="M348.313 88.6469C351.222 83.4911 357.76 81.6698 362.916 84.5791L405.865 108.814C411.021 111.723 412.842 118.261 409.933 123.417L399.607 141.718C396.697 146.874 390.159 148.695 385.003 145.786L342.054 121.551C336.898 118.642 335.077 112.104 337.986 106.948L348.313 88.6469Z" fill="white"/>
<path d="M494.188 170.958C497.098 165.803 503.636 163.981 508.792 166.891L551.741 191.125C556.897 194.034 558.718 200.572 555.809 205.728L545.482 224.029C542.573 229.185 536.035 231.007 530.879 228.097L487.93 203.863C482.774 200.954 480.953 194.416 483.862 189.26L494.188 170.958Z" fill="white"/>
<path d="M640.064 253.27C642.973 248.114 649.512 246.293 654.667 249.202L697.617 273.437C702.773 276.346 704.594 282.884 701.685 288.04L691.358 306.341C688.449 311.497 681.911 313.318 676.755 310.409L633.806 286.174C628.65 283.265 626.828 276.727 629.738 271.571L640.064 253.27Z" fill="white"/>
<path d="M175.317 54.3994C178.226 49.2436 184.764 47.4223 189.92 50.3315L232.869 74.5661C238.025 77.4753 239.846 84.0133 236.937 89.1692L226.61 107.47C223.701 112.626 217.163 114.448 212.007 111.538L169.058 87.3038C163.902 84.3946 162.081 77.8565 164.99 72.7007L175.317 54.3994Z" fill="white"/>
<path d="M321.192 136.711C324.102 131.555 330.64 129.734 335.795 132.643L378.745 156.878C383.901 159.787 385.722 166.325 382.813 171.481L372.486 189.782C369.577 194.938 363.039 196.759 357.883 193.85L314.934 169.615C309.778 166.706 307.956 160.168 310.866 155.012L321.192 136.711Z" fill="white"/>
<path d="M467.068 219.022C469.977 213.866 476.515 212.045 481.671 214.954L524.621 239.189C529.776 242.098 531.598 248.636 528.688 253.792L518.362 272.093C515.453 277.249 508.915 279.07 503.759 276.161L460.809 251.927C455.653 249.017 453.832 242.479 456.741 237.324L467.068 219.022Z" fill="white"/>
<path d="M612.944 301.334C615.853 296.178 622.391 294.357 627.547 297.266L670.496 321.5C675.652 324.41 677.473 330.948 674.564 336.104L664.238 354.405C661.328 359.561 654.79 361.382 649.634 358.473L606.685 334.238C601.529 331.329 599.708 324.791 602.617 319.635L612.944 301.334Z" fill="white"/>
<path d="M148.196 102.463C151.105 97.3075 157.643 95.4862 162.799 98.3955L205.749 122.63C210.905 125.539 212.726 132.077 209.817 137.233L199.49 155.534C196.581 160.69 190.043 162.511 184.887 159.602L141.937 135.368C136.782 132.458 134.96 125.92 137.87 120.765L148.196 102.463Z" fill="white"/>
<path d="M93.9553 198.591C96.8645 193.435 103.403 191.614 108.558 194.523L151.508 218.758C156.664 221.667 158.485 228.205 155.576 233.361L145.249 251.662C142.34 256.818 135.802 258.639 130.646 255.73L87.6966 231.496C82.5407 228.586 80.7195 222.048 83.6287 216.892L93.9553 198.591Z" fill="white"/>
<path d="M39.7145 294.719C42.6237 289.563 49.1617 287.742 54.3176 290.651L97.267 314.886C102.423 317.795 104.244 324.333 101.335 329.489L91.0083 347.79C88.099 352.946 81.561 354.767 76.4051 351.858L33.4557 327.623C28.2999 324.714 26.4786 318.176 29.3878 313.02L39.7145 294.719Z" fill="white"/>
<path d="M294.072 184.775C296.981 179.619 303.519 177.798 308.675 180.707L351.624 204.941C356.78 207.851 358.602 214.389 355.692 219.545L345.366 237.846C342.456 243.002 335.918 244.823 330.763 241.914L287.813 217.679C282.657 214.77 280.836 208.232 283.745 203.076L294.072 184.775Z" fill="white"/>
<path d="M239.831 280.903C242.74 275.747 249.278 273.926 254.434 276.835L297.384 301.069C302.539 303.979 304.361 310.517 301.451 315.672L291.125 333.974C288.216 339.13 281.678 340.951 276.522 338.042L233.572 313.807C228.416 310.898 226.595 304.36 229.504 299.204L239.831 280.903Z" fill="white"/>
<path d="M185.59 377.03C188.499 371.875 195.037 370.053 200.193 372.963L243.143 397.197C248.299 400.106 250.12 406.644 247.211 411.8L236.884 430.102C233.975 435.257 227.437 437.079 222.281 434.169L179.331 409.935C174.176 407.026 172.354 400.488 175.264 395.332L185.59 377.03Z" fill="white"/>
<path d="M439.948 267.086C442.857 261.93 449.395 260.109 454.551 263.018L497.5 287.253C502.656 290.162 504.477 296.7 501.568 301.856L491.241 320.157C488.332 325.313 481.794 327.134 476.638 324.225L433.689 299.991C428.533 297.081 426.712 290.543 429.621 285.388L439.948 267.086Z" fill="white"/>
<path d="M585.823 349.398C588.733 344.242 595.271 342.421 600.427 345.33L643.376 369.564C648.532 372.474 650.353 379.012 647.444 384.167L637.117 402.469C634.208 407.625 627.67 409.446 622.514 406.537L579.565 382.302C574.409 379.393 572.588 372.855 575.497 367.699L585.823 349.398Z" fill="white"/>
<path d="M385.707 363.214C388.616 358.058 395.154 356.237 400.31 359.146L443.259 383.381C448.415 386.29 450.236 392.828 447.327 397.984L437.001 416.285C434.091 421.441 427.553 423.262 422.397 420.353L379.448 396.118C374.292 393.209 372.471 386.671 375.38 381.515L385.707 363.214Z" fill="white"/>
<path d="M331.466 459.342C334.375 454.186 340.913 452.365 346.069 455.274L389.019 479.509C394.174 482.418 395.996 488.956 393.086 494.112L382.76 512.413C379.851 517.569 373.313 519.39 368.157 516.481L325.207 492.246C320.051 489.337 318.23 482.799 321.139 477.643L331.466 459.342Z" fill="white"/>
<path d="M531.583 445.526C534.492 440.37 541.03 438.548 546.186 441.458L589.135 465.692C594.291 468.601 596.112 475.139 593.203 480.295L582.876 498.597C579.967 503.752 573.429 505.574 568.273 502.664L525.324 478.43C520.168 475.521 518.347 468.983 521.256 463.827L531.583 445.526Z" fill="white"/>
<path d="M477.342 541.653C480.251 536.498 486.789 534.676 491.945 537.586L534.894 561.82C540.05 564.729 541.871 571.267 538.962 576.423L528.636 594.724C525.726 599.88 519.188 601.702 514.032 598.792L471.083 574.558C465.927 571.649 464.106 565.111 467.015 559.955L477.342 541.653Z" fill="white"/>
<path d="M121.076 150.527C123.985 145.371 130.523 143.55 135.679 146.459L178.628 170.694C183.784 173.603 185.605 180.141 182.696 185.297L172.37 203.598C169.46 208.754 162.922 210.575 157.766 207.666L114.817 183.432C109.661 180.522 107.84 173.984 110.749 168.829L121.076 150.527Z" fill="white"/>
<path d="M66.8349 246.655C69.7441 241.499 76.2821 239.678 81.438 242.587L124.387 266.822C129.543 269.731 131.365 276.269 128.455 281.425L118.129 299.726C115.219 304.882 108.681 306.703 103.526 303.794L60.5761 279.559C55.4203 276.65 53.599 270.112 56.5083 264.956L66.8349 246.655Z" fill="white"/>
<path d="M12.594 342.783C15.5033 337.627 22.0413 335.806 27.1972 338.715L70.1466 362.95C75.3024 365.859 77.1237 372.397 74.2145 377.553L63.8879 395.854C60.9786 401.01 54.4406 402.831 49.2847 399.922L6.3353 375.687C1.17945 372.778 -0.641804 366.24 2.26743 361.084L12.594 342.783Z" fill="white"/>
<path d="M266.951 232.839C269.861 227.683 276.399 225.862 281.555 228.771L324.504 253.005C329.66 255.915 331.481 262.453 328.572 267.608L318.245 285.91C315.336 291.066 308.798 292.887 303.642 289.978L260.693 265.743C255.537 262.834 253.716 256.296 256.625 251.14L266.951 232.839Z" fill="white"/>
<path d="M212.711 328.967C215.62 323.811 222.158 321.989 227.314 324.899L270.263 349.133C275.419 352.042 277.24 358.58 274.331 363.736L264.004 382.038C261.095 387.193 254.557 389.015 249.401 386.105L206.452 361.871C201.296 358.962 199.475 352.424 202.384 347.268L212.711 328.967Z" fill="white"/>
<path d="M158.47 425.094C161.379 419.939 167.917 418.117 173.073 421.027L216.022 445.261C221.178 448.17 222.999 454.708 220.09 459.864L209.764 478.165C206.854 483.321 200.316 485.143 195.161 482.233L152.211 457.999C147.055 455.09 145.234 448.552 148.143 443.396L158.47 425.094Z" fill="white"/>
<path d="M412.827 315.15C415.736 309.994 422.274 308.173 427.43 311.082L470.38 335.317C475.536 338.226 477.357 344.764 474.448 349.92L464.121 368.221C461.212 373.377 454.674 375.198 449.518 372.289L406.568 348.055C401.413 345.145 399.591 338.607 402.501 333.451L412.827 315.15Z" fill="white"/>
<path d="M558.703 397.462C561.612 392.306 568.15 390.485 573.306 393.394L616.256 417.628C621.411 420.538 623.233 427.076 620.323 432.231L609.997 450.533C607.088 455.689 600.549 457.51 595.394 454.601L552.444 430.366C547.288 427.457 545.467 420.919 548.376 415.763L558.703 397.462Z" fill="white"/>
<path d="M358.586 411.278C361.496 406.122 368.034 404.301 373.19 407.21L416.139 431.445C421.295 434.354 423.116 440.892 420.207 446.048L409.88 464.349C406.971 469.505 400.433 471.326 395.277 468.417L352.328 444.182C347.172 441.273 345.351 434.735 348.26 429.579L358.586 411.278Z" fill="white"/>
<path d="M304.346 507.406C307.255 502.25 313.793 500.429 318.949 503.338L361.898 527.573C367.054 530.482 368.875 537.02 365.966 542.176L355.639 560.477C352.73 565.633 346.192 567.454 341.036 564.545L298.087 540.31C292.931 537.401 291.11 530.863 294.019 525.707L304.346 507.406Z" fill="white"/>
<path d="M504.462 493.589C507.371 488.434 513.909 486.612 519.065 489.522L562.015 513.756C567.171 516.665 568.992 523.203 566.083 528.359L555.756 546.66C552.847 551.816 546.309 553.638 541.153 550.728L498.203 526.494C493.048 523.585 491.226 517.047 494.136 511.891L504.462 493.589Z" fill="white"/>
<path d="M450.221 589.717C453.131 584.561 459.669 582.74 464.824 585.649L507.774 609.884C512.93 612.793 514.751 619.331 511.842 624.487L501.515 642.788C498.606 647.944 492.068 649.765 486.912 646.856L443.963 622.622C438.807 619.712 436.985 613.174 439.895 608.019L450.221 589.717Z" fill="white"/>
<path d="M275.375 47.4912C278.284 42.3354 284.822 40.5141 289.978 43.4233L332.927 67.6579C338.083 70.5671 339.905 77.1052 336.995 82.261L326.669 100.562C323.759 105.718 317.221 107.539 312.066 104.63L269.116 80.3956C263.96 77.4864 262.139 70.9483 265.048 65.7925L275.375 47.4912Z" fill="white"/>
<path d="M421.251 129.803C424.16 124.647 430.698 122.826 435.854 125.735L478.803 149.969C483.959 152.879 485.78 159.417 482.871 164.572L472.544 182.874C469.635 188.03 463.097 189.851 457.941 186.942L414.992 162.707C409.836 159.798 408.015 153.26 410.924 148.104L421.251 129.803Z" fill="white"/>
<path d="M567.126 212.114C570.036 206.958 576.574 205.137 581.729 208.046L624.679 232.281C629.835 235.19 631.656 241.728 628.747 246.884L618.42 265.185C615.511 270.341 608.973 272.162 603.817 269.253L560.868 245.019C555.712 242.109 553.891 235.571 556.8 230.415L567.126 212.114Z" fill="white"/>
<path d="M713.002 294.426C715.911 289.27 722.449 287.449 727.605 290.358L770.555 314.592C775.71 317.501 777.532 324.04 774.623 329.195L764.296 347.497C761.387 352.652 754.849 354.474 749.693 351.564L706.743 327.33C701.588 324.421 699.766 317.883 702.675 312.727L713.002 294.426Z" fill="white"/>
<path d="M248.254 95.5551C251.164 90.3993 257.702 88.578 262.858 91.4873L305.807 115.722C310.963 118.631 312.784 125.169 309.875 130.325L299.548 148.626C296.639 153.782 290.101 155.603 284.945 152.694L241.996 128.46C236.84 125.55 235.019 119.012 237.928 113.856L248.254 95.5551Z" fill="white"/>
<path d="M394.13 177.867C397.039 172.711 403.577 170.89 408.733 173.799L451.683 198.033C456.839 200.942 458.66 207.481 455.751 212.636L445.424 230.938C442.515 236.093 435.977 237.915 430.821 235.006L387.871 210.771C382.716 207.862 380.894 201.324 383.804 196.168L394.13 177.867Z" fill="white"/>
<path d="M540.006 260.178C542.915 255.022 549.453 253.201 554.609 256.11L597.558 280.345C602.714 283.254 604.536 289.792 601.626 294.948L591.3 313.249C588.391 318.405 581.852 320.226 576.697 317.317L533.747 293.082C528.591 290.173 526.77 283.635 529.679 278.479L540.006 260.178Z" fill="white"/>
<path d="M685.882 342.49C688.791 337.334 695.329 335.512 700.485 338.422L743.434 362.656C748.59 365.565 750.411 372.103 747.502 377.259L737.175 395.561C734.266 400.716 727.728 402.538 722.572 399.628L679.623 375.394C674.467 372.485 672.646 365.947 675.555 360.791L685.882 342.49Z" fill="white"/>
<path d="M221.134 143.619C224.043 138.463 230.581 136.642 235.737 139.551L278.687 163.786C283.842 166.695 285.664 173.233 282.754 178.389L272.428 196.69C269.519 201.846 262.981 203.667 257.825 200.758L214.875 176.523C209.719 173.614 207.898 167.076 210.807 161.92L221.134 143.619Z" fill="white"/>
<path d="M166.893 239.747C169.802 234.591 176.34 232.77 181.496 235.679L224.446 259.914C229.602 262.823 231.423 269.361 228.514 274.517L218.187 292.818C215.278 297.974 208.74 299.795 203.584 296.886L160.634 272.651C155.479 269.742 153.657 263.204 156.567 258.048L166.893 239.747Z" fill="white"/>
<path d="M112.652 335.875C115.562 330.719 122.1 328.898 127.255 331.807L170.205 356.041C175.361 358.951 177.182 365.489 174.273 370.645L163.946 388.946C161.037 394.102 154.499 395.923 149.343 393.014L106.394 368.779C101.238 365.87 99.4165 359.332 102.326 354.176L112.652 335.875Z" fill="white"/>
<path d="M367.01 225.931C369.919 220.775 376.457 218.953 381.613 221.863L424.562 246.097C429.718 249.006 431.539 255.544 428.63 260.7L418.304 279.002C415.394 284.157 408.856 285.979 403.7 283.069L360.751 258.835C355.595 255.926 353.774 249.388 356.683 244.232L367.01 225.931Z" fill="white"/>
<path d="M312.769 322.058C315.678 316.903 322.216 315.081 327.372 317.99L370.321 342.225C375.477 345.134 377.299 351.672 374.389 356.828L364.063 375.129C361.154 380.285 354.615 382.107 349.46 379.197L306.51 354.963C301.354 352.054 299.533 345.515 302.442 340.36L312.769 322.058Z" fill="white"/>
<path d="M258.528 418.186C261.437 413.03 267.975 411.209 273.131 414.118L316.081 438.353C321.237 441.262 323.058 447.8 320.149 452.956L309.822 471.257C306.913 476.413 300.375 478.234 295.219 475.325L252.269 451.091C247.113 448.181 245.292 441.643 248.201 436.487L258.528 418.186Z" fill="white"/>
<path d="M512.886 308.242C515.795 303.086 522.333 301.265 527.489 304.174L570.438 328.409C575.594 331.318 577.415 337.856 574.506 343.012L564.179 361.313C561.27 366.469 554.732 368.29 549.576 365.381L506.627 341.146C501.471 338.237 499.65 331.699 502.559 326.543L512.886 308.242Z" fill="white"/>
<path d="M658.761 390.553C661.67 385.398 668.209 383.576 673.364 386.486L716.314 410.72C721.47 413.629 723.291 420.167 720.382 425.323L710.055 443.624C707.146 448.78 700.608 450.602 695.452 447.692L652.503 423.458C647.347 420.549 645.525 414.011 648.435 408.855L658.761 390.553Z" fill="white"/>
<path d="M458.645 404.37C461.554 399.214 468.092 397.393 473.248 400.302L516.197 424.536C521.353 427.446 523.174 433.984 520.265 439.14L509.938 457.441C507.029 462.597 500.491 464.418 495.335 461.509L452.386 437.274C447.23 434.365 445.409 427.827 448.318 422.671L458.645 404.37Z" fill="white"/>
<path d="M404.404 500.498C407.313 495.342 413.851 493.521 419.007 496.43L461.956 520.664C467.112 523.574 468.933 530.112 466.024 535.267L455.698 553.569C452.788 558.725 446.25 560.546 441.095 557.637L398.145 533.402C392.989 530.493 391.168 523.955 394.077 518.799L404.404 500.498Z" fill="white"/>
<path d="M604.52 486.681C607.43 481.525 613.968 479.704 619.124 482.613L662.073 506.848C667.229 509.757 669.05 516.295 666.141 521.451L655.814 539.752C652.905 544.908 646.367 546.729 641.211 543.82L598.262 519.586C593.106 516.676 591.285 510.138 594.194 504.983L604.52 486.681Z" fill="white"/>
<path d="M550.28 582.809C553.189 577.653 559.727 575.832 564.883 578.741L607.832 602.976C612.988 605.885 614.809 612.423 611.9 617.579L601.573 635.88C598.664 641.036 592.126 642.857 586.97 639.948L544.021 615.714C538.865 612.804 537.044 606.266 539.953 601.11L550.28 582.809Z" fill="white"/>
<path d="M194.014 191.683C196.923 186.527 203.461 184.706 208.617 187.615L251.566 211.85C256.722 214.759 258.543 221.297 255.634 226.453L245.307 244.754C242.398 249.91 235.86 251.731 230.704 248.822L187.755 224.587C182.599 221.678 180.778 215.14 183.687 209.984L194.014 191.683Z" fill="white"/>
<path d="M139.773 287.811C142.682 282.655 149.22 280.834 154.376 283.743L197.325 307.977C202.481 310.887 204.302 317.425 201.393 322.581L191.067 340.882C188.157 346.038 181.619 347.859 176.463 344.95L133.514 320.715C128.358 317.806 126.537 311.268 129.446 306.112L139.773 287.811Z" fill="white"/>
<path d="M85.5319 383.939C88.4411 378.783 94.9792 376.962 100.135 379.871L143.084 404.105C148.24 407.015 150.062 413.553 147.152 418.708L136.826 437.01C133.917 442.166 127.378 443.987 122.223 441.078L79.2732 416.843C74.1173 413.934 72.2961 407.396 75.2053 402.24L85.5319 383.939Z" fill="white"/>
<path d="M339.889 273.994C342.799 268.839 349.337 267.017 354.492 269.927L397.442 294.161C402.598 297.07 404.419 303.608 401.51 308.764L391.183 327.065C388.274 332.221 381.736 334.043 376.58 331.133L333.631 306.899C328.475 303.99 326.654 297.452 329.563 292.296L339.889 273.994Z" fill="white"/>
<path d="M285.649 370.122C288.558 364.966 295.096 363.145 300.252 366.054L343.201 390.289C348.357 393.198 350.178 399.736 347.269 404.892L336.942 423.193C334.033 428.349 327.495 430.17 322.339 427.261L279.39 403.027C274.234 400.117 272.413 393.579 275.322 388.424L285.649 370.122Z" fill="white"/>
<path d="M231.408 466.25C234.317 461.094 240.855 459.273 246.011 462.182L288.96 486.417C294.116 489.326 295.937 495.864 293.028 501.02L282.702 519.321C279.792 524.477 273.254 526.298 268.098 523.389L225.149 499.155C219.993 496.245 218.172 489.707 221.081 484.551L231.408 466.25Z" fill="white"/>
<path d="M485.765 356.306C488.674 351.15 495.212 349.329 500.368 352.238L543.318 376.473C548.473 379.382 550.295 385.92 547.386 391.076L537.059 409.377C534.15 414.533 527.612 416.354 522.456 413.445L479.506 389.21C474.35 386.301 472.529 379.763 475.438 374.607L485.765 356.306Z" fill="white"/>
<path d="M631.641 438.617C634.55 433.462 641.088 431.64 646.244 434.549L689.193 458.784C694.349 461.693 696.17 468.231 693.261 473.387L682.935 491.688C680.025 496.844 673.487 498.665 668.332 495.756L625.382 471.522C620.226 468.613 618.405 462.074 621.314 456.919L631.641 438.617Z" fill="white"/>
<path d="M431.524 452.434C434.433 447.278 440.972 445.457 446.127 448.366L489.077 472.6C494.233 475.51 496.054 482.048 493.145 487.204L482.818 505.505C479.909 510.661 473.371 512.482 468.215 509.573L425.266 485.338C420.11 482.429 418.288 475.891 421.198 470.735L431.524 452.434Z" fill="white"/>
<path d="M377.283 548.562C380.193 543.406 386.731 541.584 391.887 544.494L434.836 568.728C439.992 571.637 441.813 578.175 438.904 583.331L428.577 601.633C425.668 606.788 419.13 608.61 413.974 605.7L371.025 581.466C365.869 578.557 364.048 572.019 366.957 566.863L377.283 548.562Z" fill="white"/>
<path d="M577.4 534.745C580.309 529.589 586.847 527.768 592.003 530.677L634.953 554.912C640.108 557.821 641.93 564.359 639.02 569.515L628.694 587.816C625.785 592.972 619.247 594.793 614.091 591.884L571.141 567.65C565.985 564.74 564.164 558.202 567.073 553.046L577.4 534.745Z" fill="white"/>
<path d="M523.159 630.873C526.068 625.717 532.606 623.896 537.762 626.805L580.712 651.04C585.868 653.949 587.689 660.487 584.78 665.643L574.453 683.944C571.544 689.1 565.006 690.921 559.85 688.012L516.9 663.777C511.745 660.868 509.923 654.33 512.833 649.174L523.159 630.873Z" fill="white"/>
</svg>
