<svg width="194" height="184" viewBox="0 0 194 184" fill="none" xmlns="http://www.w3.org/2000/svg">
<path id="Ellipse 8" d="M3.85454 142.969C-0.030365 146.87 -0.0561066 153.217 4.14973 156.77C24.0179 173.556 49.0298 183.196 75.1753 183.952C104.645 184.804 133.324 174.306 155.336 154.609C177.348 134.911 191.026 107.505 193.569 78.0063C195.824 51.8604 189.178 25.8244 174.887 4.08649C171.844 -0.54211 165.491 -1.25173 161.158 2.19825L158.702 4.15295C154.394 7.58247 153.721 13.8251 156.65 18.488C167.364 35.5444 172.303 55.7334 170.556 76.005C168.521 99.6044 157.578 121.529 139.968 137.287C122.359 153.045 99.416 161.443 75.8402 160.762C55.6207 160.177 36.2485 152.951 20.6219 140.339C16.311 136.86 9.98572 136.811 6.07701 140.737L3.85454 142.969Z" fill="#64ACDE"/>
</svg>
