<svg width="99" height="105" viewBox="0 0 99 105" fill="none" xmlns="http://www.w3.org/2000/svg">
<g id="Group">
<path id="Vector" fill-rule="evenodd" clip-rule="evenodd" d="M9.30105 58.9349C9.83194 58.4449 10.7741 58.5618 11.4227 59.189C19.1733 66.4867 26.9458 70.6393 34.5099 71.5909C41.8751 72.5165 48.9709 70.312 55.5962 65.0892C57.0716 63.9526 59.2741 61.4861 61.1204 58.4871C58.9909 55.7247 57.4267 52.5636 56.4985 49.5846C55.1288 45.185 55.348 41.3098 56.6119 39.5234C57.3123 38.5342 58.2961 37.9919 59.5013 37.8572C61.0442 37.687 63.2278 38.2483 65.9147 40.5374C69.6233 43.7087 70.8868 47.7732 70.3505 52.0247C70.066 54.2594 69.2469 56.5447 68.1512 58.7053C69.8451 60.0806 71.865 60.9958 74.2034 61.0189C79.1568 61.1003 82.4782 57.5904 84.6391 53.2598C86.5143 49.5142 88.6531 43.9081 87.3978 39.1136C86.9721 37.4845 86.0905 36.025 87.3247 34.8754C89.2118 33.0943 91.376 35.4116 91.9638 37.6496C93.2241 42.4571 92.0935 47.9435 90.8395 52.1004C88.5403 59.7512 83.3647 66.275 75.4152 66.3422C71.6866 66.357 68.3751 65.0253 65.5817 62.9373C63.4774 65.9327 61.1174 68.3397 59.5229 69.5006C51.6184 75.1095 43.2703 77.1805 34.8154 75.7471C26.3693 74.3192 17.7927 69.4315 9.51387 60.9664C8.86924 60.3318 8.77016 59.4249 9.30105 58.9349ZM63.8649 52.5176C64.2425 51.2456 64.4527 49.9774 64.4198 48.7446C64.3751 47.1767 63.8952 45.6723 62.4937 44.4812C62.2565 44.2821 61.9642 44.0085 61.727 43.8094C61.6234 44.3402 61.4585 45.3886 61.5527 46.2824C61.7724 48.2785 62.5069 50.7083 63.7003 53.0298C63.7692 52.8547 63.8215 52.689 63.8649 52.5176Z" fill="#4D2C5E"/>
<path id="Vector_2" fill-rule="evenodd" clip-rule="evenodd" d="M61.5892 43.4427C61.4508 43.504 61.3153 43.5375 61.3144 43.428C61.3164 43.2907 61.4165 43.3241 61.5892 43.4427Z" fill="#4D2C5E"/>
<path id="Vector_3" fill-rule="evenodd" clip-rule="evenodd" d="M13.7253 63.3337C14.5703 64.8766 15.4026 66.5104 16.0374 68.0496C17.0176 70.4504 17.5618 72.6062 17.135 74.0809C17.0335 74.8294 16.2761 75.2142 15.457 74.936C14.6341 74.6653 14.05 73.8317 14.1603 73.0889C14.1595 72.7119 13.977 72.2997 13.7965 71.8392C13.3805 70.7549 12.5873 69.5816 11.7255 68.3155C10.6242 66.7003 9.33324 65.0648 8.22006 63.5611C7.20798 62.2004 6.35106 60.9472 5.78572 59.967C4.89355 58.4241 4.71924 57.1948 4.80595 56.4965C4.83156 56.3145 6.14776 53.7158 9.04461 55.1444C10.0806 55.6583 12.6641 57.0777 12.7918 57.1482C14.3541 58.0927 17.2518 59.8091 19.9455 60.8422C20.7969 61.1705 21.6169 61.4691 22.3466 61.582C22.3781 61.5226 22.4095 61.4632 22.4498 61.4093C23.0267 60.564 24.3222 60.4984 25.3611 61.2519C25.9316 61.6211 26.7268 62.5679 26.9711 63.1082C27.4411 64.1572 27.1305 64.9225 26.2227 65.48C24.9858 66.2365 23.0804 66.2745 20.8873 65.854C18.5813 65.402 15.9073 64.3318 13.7253 63.3337ZM10.7975 58.3786C10.6021 58.0574 10.5227 57.829 10.7358 57.8048C10.9745 57.7768 10.8555 58.1576 10.7975 58.3786Z" fill="#4D2C5E"/>
</g>
</svg>
