<svg width="47" height="42" viewBox="0 0 47 42" fill="none" xmlns="http://www.w3.org/2000/svg">
<g id="Group 37111">
<g id="Group 36813">
<rect id="Rectangle 4268" x="0.770508" y="0.384766" width="45.4359" height="41.5" rx="8" fill="#F7F7FF"/>
<g id="Group 36811">
<path id="Vector" d="M23.3936 11.9848C22.7584 11.9848 22.2436 12.4996 22.2436 13.1348V29.1348C22.2436 29.7699 22.7584 30.2848 23.3936 30.2848H23.5832C24.2184 30.2848 24.7332 29.7699 24.7332 29.1348V13.1348C24.7332 12.4996 24.2184 11.9848 23.5832 11.9848H23.3936Z" fill="#6F6C90" stroke="#6F6C90" stroke-width="0.3" stroke-linecap="round"/>
<path id="Vector_2" d="M14.6348 19.9848C13.9996 19.9848 13.4848 20.4996 13.4848 21.1348C13.4848 21.7699 13.9996 22.2848 14.6348 22.2848H32.3419C32.977 22.2848 33.4919 21.7699 33.4919 21.1348C33.4919 20.4996 32.977 19.9848 32.3419 19.9848H14.6348Z" fill="#6F6C90" stroke="#6F6C90" stroke-width="0.3" stroke-linecap="round"/>
</g>
</g>
</g>
</svg>
